<?xml version="1.0" encoding="UTF-8"?>
<svg version="1.1" xmlns="http://www.w3.org/2000/svg" width="1640" height="2360">
<path d="M0 0 C0.94179108 0.07766602 1.88358215 0.15533203 2.85391235 0.23535156 C5.87981706 0.48845746 8.90483249 0.75027844 11.9296875 1.015625 C13.4848407 1.15200378 13.4848407 1.15200378 15.07141113 1.2911377 C30.12034552 2.62694525 45.01583401 4.08428816 59.8046875 7.265625 C61.01753418 7.5229541 62.23038086 7.7802832 63.47998047 8.04541016 C96.60386504 15.14959047 128.76610916 25.19616221 160.61001587 36.68032837 C166.34665266 38.7485402 172.09626866 40.77732979 177.8515625 42.79296875 C181.31588604 44.01080788 184.77912228 45.23171313 188.2421875 46.453125 C189.52955307 46.905737 189.52955307 46.905737 190.84292603 47.36749268 C201.42876153 51.10008697 211.88590099 55.05966805 222.26953125 59.32421875 C224.3607217 60.17497643 226.45194865 61.0256444 228.54321289 61.8762207 C232.5555461 63.51032984 236.54579192 65.18780781 240.52905273 66.89135742 C252.49969896 72.15380522 252.49969896 72.15380522 265.06591797 70.44287109 C265.96971191 70.05437988 266.87350586 69.66588867 267.8046875 69.265625 C269.9040812 68.64130094 272.01146254 68.04337496 274.125 67.46875 C275.2190918 67.15333252 276.31318359 66.83791504 277.44042969 66.51293945 C323.94987497 53.21941273 372.45792878 46.2852403 420.8046875 45.265625 C421.76020508 45.24371094 422.71572266 45.22179687 423.70019531 45.19921875 C481.38666776 44.06774168 540.72198618 51.08804618 595.87792969 68.22021484 C596.82313477 68.5033252 597.76833984 68.78643555 598.7421875 69.078125 C599.55558594 69.33207031 600.36898437 69.58601563 601.20703125 69.84765625 C607.27735254 70.82438464 612.73936286 68.76155694 618.31640625 66.5625 C619.02855286 66.2889418 619.74069946 66.01538361 620.47442627 65.73353577 C622.01062593 65.14295 623.54563763 64.54926661 625.07955933 63.95278931 C629.25729111 62.32998594 633.44560218 60.73486962 637.6328125 59.13671875 C638.49144394 58.80842575 639.35007538 58.48013275 640.23472595 58.14189148 C652.91325179 53.30270975 665.68531685 48.72645863 678.46826172 44.171875 C682.33747427 42.79210041 686.20292747 41.40220794 690.06689453 40.0078125 C717.7153635 30.03580343 745.25251219 20.31831886 773.8046875 13.265625 C775.15236286 12.92813621 776.5000191 12.59057103 777.84765625 12.25292969 C815.76329094 2.82147407 856.67862812 -3.06031227 895.8046875 0.265625 C896.59133789 0.32379395 897.37798828 0.38196289 898.18847656 0.44189453 C922.40307075 2.28716647 946.53842354 9.97510805 963.5546875 28.078125 C995.1341744 65.11787969 996.09885189 130.5139301 999.4296875 176.9609375 C999.49433386 177.86220493 999.55898022 178.76347237 999.62558556 179.69205093 C1001.18728088 202.10613867 1001.22367638 224.49884696 1001.1272583 246.95690918 C1001.1137354 251.23194751 1001.11911697 255.50688355 1001.12412167 259.78193378 C1001.14410045 282.35080644 1000.96693923 304.7820497 998.8046875 327.265625 C998.73152313 328.05219482 998.65835876 328.83876465 998.58297729 329.64916992 C998.17969168 333.88839745 997.68392235 338.10785809 997.1171875 342.328125 C996.95130127 343.58085205 996.78541504 344.8335791 996.61450195 346.12426758 C991.58668082 382.89356448 983.0644718 419.56143806 970.64160156 454.54052734 C967.99995122 462.01921723 967.99995122 462.01921723 967.9296875 469.890625 C968.05601563 471.05980469 968.18234375 472.22898437 968.3125 473.43359375 C968.47492188 474.69816406 968.63734375 475.96273438 968.8046875 477.265625 C969.05959293 479.48614584 969.30553768 481.70753798 969.55029297 483.92919922 C969.71181832 485.37300642 969.87940506 486.81615851 970.05517578 488.25830078 C971.68707638 501.97456904 971.96539837 515.63290384 971.93505859 529.42700195 C971.92968951 532.32703867 971.9350417 535.22692102 971.94140625 538.12695312 C971.95269698 565.96960603 971.95269698 565.96960603 969.8046875 570.265625 C970.8477002 570.029646 971.89071289 569.79366699 972.96533203 569.55053711 C992.37484621 565.17149746 1011.79744533 560.93391394 1031.3671875 557.328125 C1032.13508606 557.18519012 1032.90298462 557.04225525 1033.69415283 556.89498901 C1069.11633703 550.32913242 1069.11633703 550.32913242 1076.6796875 553.453125 C1079.21293972 555.61384013 1080.5378521 557.16891624 1081.8046875 560.265625 C1081.88332853 564.66952263 1081.37799566 566.59934794 1078.4921875 569.953125 C1070.88568178 575.50042966 1060.31780543 576.96875051 1051.2421875 578.515625 C1048.88266137 578.93534921 1046.52329823 579.35599028 1044.1640625 579.77734375 C1043.52482346 579.89029282 1042.88558441 580.00324188 1042.22697449 580.11961365 C1033.74979239 581.6194331 1025.29042472 583.21558319 1016.82839966 584.79821777 C1012.17916472 585.66686337 1007.52905004 586.53076641 1002.87890625 587.39453125 C1001.99718246 587.55831268 1001.11545868 587.72209412 1000.20701599 587.89083862 C998.51625195 588.20486856 996.82548175 588.51886537 995.13470459 588.83282471 C993.01502623 589.22655461 990.89544005 589.62077642 988.77587891 590.01513672 C985.61934067 590.60153267 982.46220547 591.1845321 979.3046875 591.765625 C978.44641357 591.92554932 977.58813965 592.08547363 976.70385742 592.25024414 C973.69137876 592.80118671 970.87450791 593.265625 967.8046875 593.265625 C967.67006104 594.20523071 967.67006104 594.20523071 967.53271484 595.16381836 C963.19489964 624.94240657 955.79262423 653.72928605 945.5703125 682.02734375 C945.10537747 683.3206688 944.64069518 684.61408473 944.17626953 685.90759277 C943.05487583 689.02783433 941.93097711 692.14714808 940.8046875 695.265625 C951.44777199 693.65706033 962.09084624 692.04842798 972.73390865 690.43971729 C978.64219039 689.54667635 984.5504773 688.65366966 990.45877647 687.76074409 C992.37475992 687.47115349 994.29073614 687.18151502 996.20670509 686.89182854 C1000.95442384 686.1740221 1005.70224319 685.45689568 1010.45028687 684.74124146 C1018.41614535 683.53981623 1026.38143861 682.33589158 1034.34159374 681.09715366 C1037.40995547 680.6196756 1040.47883647 680.14558218 1043.5477314 679.67154503 C1045.61552255 679.35041527 1047.68237392 679.02367521 1049.74925232 678.69673157 C1051.59922569 678.4111866 1051.59922569 678.4111866 1053.48657227 678.11987305 C1054.54562271 677.95376022 1055.60467316 677.7876474 1056.69581604 677.61650085 C1062.64432548 676.94513558 1066.88513825 676.57596306 1071.8046875 680.265625 C1074.52680311 682.55193392 1075.28243394 684.11349492 1075.6796875 687.640625 C1076.01448089 691.76527962 1075.50146423 693.99096755 1072.8046875 697.265625 C1066.35182103 704.69301602 1049.14371703 703.74593259 1039.828125 704.9453125 C1037.85637878 705.20163758 1035.88466928 705.45824524 1033.91299438 705.71511841 C1028.72091698 706.3906816 1023.5282995 707.06200426 1018.33557129 707.73254395 C1014.1892493 708.26869659 1010.0433309 708.80792999 1005.89742661 709.34730148 C994.09266535 710.88304058 982.28639119 712.40675219 970.47898865 713.92204285 C967.89021484 714.25463683 965.301593 714.58838909 962.7130127 714.92248535 C958.90343037 715.41386573 955.09337672 715.90139249 951.28285599 716.38544083 C949.28766117 716.63965723 947.29291502 716.89738737 945.29818726 717.15524292 C943.5295079 717.37834641 943.5295079 717.37834641 941.72509766 717.60595703 C940.21358627 717.79884811 940.21358627 717.79884811 938.67153931 717.99563599 C935.69895166 718.27558279 932.78862271 718.31240318 929.8046875 718.265625 C929.56363281 719.07 929.32257813 719.874375 929.07421875 720.703125 C918.61748779 750.04632081 898.54000266 777.65773607 879.8046875 802.265625 C879.36592285 802.84328613 878.9271582 803.42094727 878.47509766 804.01611328 C871.29254826 813.42601291 863.66899034 822.42043 855.8046875 831.265625 C855.35109863 831.77851074 854.89750977 832.29139648 854.43017578 832.81982422 C847.26860591 840.87892765 839.66415758 848.50799475 832.0546875 856.140625 C831.55882141 856.63916992 831.06295532 857.13771484 830.55206299 857.65136719 C824.81664756 863.41027189 818.99945968 869.00015344 812.8046875 874.265625 C811.72137344 875.21468355 810.63929216 876.16515156 809.55859375 877.1171875 C800.61507505 884.91841796 791.32261719 892.18054832 781.8046875 899.265625 C781.09328613 899.79800781 780.38188477 900.33039062 779.64892578 900.87890625 C767.43531707 909.9871724 754.73183592 918.21145625 741.8046875 926.265625 C740.25509708 927.23419703 738.70560784 928.20293097 737.15625 929.171875 C736.05023437 929.8628125 734.94421875 930.55375 733.8046875 931.265625 C737.5047848 933.58076968 741.28333282 935.43494075 745.2421875 937.265625 C752.71279057 940.87284203 758.89121448 945.67936246 765.23974609 950.96826172 C767.41769783 952.77382109 769.64386507 954.51641979 771.8671875 956.265625 C773.51568513 957.59566286 775.16138499 958.92917373 776.8046875 960.265625 C777.76375 961.03777344 778.7228125 961.80992187 779.7109375 962.60546875 C793.47170756 973.84559461 805.7382542 986.20860519 816.1171875 1000.63671875 C818.4588373 1003.86735917 821.00489522 1006.79475195 823.7421875 1009.703125 C828.56871732 1014.84054241 832.79157673 1020.33663557 836.98803711 1025.98999023 C839.76559196 1029.7061398 842.63243238 1033.22018743 845.76953125 1036.640625 C849.98242665 1041.31323702 853.35539766 1046.35238631 856.7421875 1051.640625 C861.72140764 1059.26855061 866.88577974 1066.33976612 872.8046875 1073.265625 C877.38089881 1079.08989393 881.58036921 1085.18446351 885.8046875 1091.265625 C886.92916505 1092.87015793 888.0541671 1094.47432341 889.1796875 1096.078125 C895.44599482 1105.03600056 901.6863516 1114.00466732 907.71484375 1123.125 C909.18603504 1125.33591177 910.6701944 1127.53167423 912.17578125 1129.71875 C921.65687897 1143.56827796 929.45894895 1158.24912411 936.84130859 1173.30224609 C942.99357764 1185.84065149 949.42085724 1198.21624252 956.01611328 1210.52685547 C966.49824157 1230.10542379 975.73776369 1249.91622218 983.77832031 1270.62695312 C984.60652604 1272.75617469 985.44568342 1274.8799137 986.296875 1277 C987.51498069 1280.07312939 988.67379582 1283.15929753 989.8046875 1286.265625 C990.22427734 1287.40862061 990.22427734 1287.40862061 990.65234375 1288.57470703 C1002.26388458 1320.53680922 999.66974288 1350.51598959 991.9921875 1383.078125 C991.83177979 1383.77000916 991.67137207 1384.46189331 991.50610352 1385.17474365 C987.0326077 1404.30069904 979.72380576 1422.20248286 966.8046875 1437.265625 C966.11632813 1438.07515625 965.42796875 1438.8846875 964.71875 1439.71875 C941.52980732 1466.24364584 908.6862207 1480.29909674 874.6796875 1487.203125 C873.69806641 1487.40252686 872.71644531 1487.60192871 871.70507812 1487.80737305 C864.10550482 1489.23962977 856.52081089 1489.83900898 848.8046875 1490.265625 C848.82039795 1491.42682861 848.8361084 1492.58803223 848.85229492 1493.78442383 C849.12733396 1516.12749739 849.34222275 1538.13963625 845.8046875 1560.265625 C845.63308105 1561.37212402 845.46147461 1562.47862305 845.28466797 1563.61865234 C837.980761 1609.60258852 821.05873185 1655.70807778 788.7734375 1690.0859375 C786.77381088 1692.10434169 786.77381088 1692.10434169 785.8046875 1694.265625 C785.1446875 1694.265625 784.4846875 1694.265625 783.8046875 1694.265625 C783.4746875 1695.255625 783.1446875 1696.245625 782.8046875 1697.265625 C782.1446875 1697.265625 781.4846875 1697.265625 780.8046875 1697.265625 C780.4746875 1698.255625 780.1446875 1699.245625 779.8046875 1700.265625 C778.24047852 1701.86572266 778.24047852 1701.86572266 776.24609375 1703.5546875 C775.52180176 1704.16860352 774.79750977 1704.78251953 774.05126953 1705.41503906 C734.4120057 1738.06724726 687.95450289 1752.7961546 636.8046875 1754.265625 C634.94650391 1754.3275 634.94650391 1754.3275 633.05078125 1754.390625 C567.67109621 1755.48142266 508.01051052 1730.16984898 460.8828125 1685.2734375 C452.68630874 1677.31983139 445.40137667 1669.01354902 438.6796875 1659.765625 C438.1228125 1658.99976074 437.5659375 1658.23389648 436.9921875 1657.44482422 C434.43145924 1653.84021699 432.17193644 1650.51928838 430.8046875 1646.265625 C430.1446875 1646.265625 429.4846875 1646.265625 428.8046875 1646.265625 C428.56492187 1646.95785156 428.32515625 1647.65007812 428.078125 1648.36328125 C426.57750383 1651.78340865 424.60929568 1654.69391698 422.4296875 1657.703125 C421.77093628 1658.6156604 421.77093628 1658.6156604 421.09887695 1659.54663086 C409.59754605 1675.23613277 396.15128443 1689.31257134 380.8046875 1701.265625 C379.86882813 1702.03003906 378.93296875 1702.79445313 377.96875 1703.58203125 C338.8141895 1734.93587597 289.93480127 1753.02717965 239.8046875 1754.265625 C238.55300781 1754.30558594 237.30132813 1754.34554687 236.01171875 1754.38671875 C176.73237423 1755.67301694 120.74057419 1738.69670886 77.54785156 1697.39599609 C63.96580714 1684.12719631 52.91130109 1668.90658393 43.8046875 1652.265625 C43.47839355 1651.67346191 43.15209961 1651.08129883 42.81591797 1650.47119141 C24.95292609 1617.59087533 15.21198044 1580.41252519 11.8046875 1543.265625 C11.71711182 1542.3271875 11.62953613 1541.38875 11.53930664 1540.421875 C10.66329087 1529.90660394 10.69082384 1519.43471254 10.7421875 1508.890625 C10.74721683 1507.07552208 10.75177718 1505.2604178 10.75585938 1503.4453125 C10.76674152 1499.05204892 10.78392556 1494.65885254 10.8046875 1490.265625 C9.49431519 1490.19649902 9.49431519 1490.19649902 8.1574707 1490.12597656 C0.26317835 1489.64608037 -7.28657889 1488.70944027 -15.0078125 1487.015625 C-16.03753174 1486.79455078 -17.06725098 1486.57347656 -18.12817383 1486.34570312 C-26.96043689 1484.4048183 -35.60867098 1482.09786802 -44.1953125 1479.265625 C-45.27167969 1478.91113281 -46.34804688 1478.55664062 -47.45703125 1478.19140625 C-74.45180665 1468.53831844 -97.55907636 1451.55054888 -114.1953125 1428.265625 C-114.76765625 1427.4715625 -115.34 1426.6775 -115.9296875 1425.859375 C-137.18268184 1393.40856644 -137.15888876 1351.38662185 -129.9765625 1314.765625 C-124.60464918 1289.32428981 -115.7369566 1265.51949846 -104.1953125 1242.265625 C-103.7607373 1241.38938477 -103.32616211 1240.51314453 -102.87841797 1239.61035156 C-97.91392361 1229.704643 -92.40595543 1220.19487725 -86.65405273 1210.72924805 C-79.55033423 1198.98144657 -73.39012634 1186.8387959 -67.52807617 1174.43041992 C-59.38453504 1157.21889649 -50.36580569 1140.75754753 -39.2890625 1125.24609375 C-37.0691182 1122.08598648 -35.00054735 1118.84590685 -32.9453125 1115.578125 C-27.87068816 1107.56191953 -22.27360366 1099.93060903 -16.66992188 1092.27929688 C-14.73314992 1089.63451292 -12.80819323 1086.98120869 -10.8828125 1084.328125 C-9.96048828 1083.06355469 -9.96048828 1083.06355469 -9.01953125 1081.7734375 C-7.74571432 1080.02228018 -6.47795799 1078.26670531 -5.21484375 1076.5078125 C-2.02397429 1072.07639224 1.20887965 1067.73216868 4.6796875 1063.515625 C8.00088058 1059.42599901 10.92396692 1055.16804967 13.8046875 1050.765625 C18.75857809 1043.20601249 24.16792222 1036.20760254 30.1796875 1029.453125 C33.19231712 1026.06391667 35.94523488 1022.50460431 38.6796875 1018.890625 C41.69363868 1014.90984912 44.77340369 1011.11241177 48.1796875 1007.453125 C51.34468811 1004.03448323 54.13146638 1000.50457055 56.84448242 996.72998047 C66.92512139 982.7374266 79.19509635 970.81495892 92.8046875 960.265625 C93.98922411 959.30615034 95.17135645 958.34370275 96.3515625 957.37890625 C107.15719632 948.56792312 117.99470709 939.98847932 130.8046875 934.265625 C131.44970215 933.97381348 132.0947168 933.68200195 132.75927734 933.38134766 C134.93777859 932.39768387 137.12007918 931.42314636 139.3046875 930.453125 C140.36586792 929.98108643 140.36586792 929.98108643 141.44848633 929.49951172 C146.56630963 927.265625 146.56630963 927.265625 148.8046875 927.265625 C146.02469326 924.05793934 142.459176 922.11637719 138.8671875 919.953125 C118.80520092 907.62169983 99.82392481 893.41110463 81.8046875 878.265625 C81.2890625 877.83491699 80.7734375 877.40420898 80.2421875 876.96044922 C66.80490322 865.71385427 54.15476354 853.69008173 41.7421875 841.328125 C40.56426636 840.15721313 40.56426636 840.15721313 39.36254883 838.96264648 C34.63791905 834.22486604 30.15256655 829.34971583 25.8046875 824.265625 C24.81974518 823.13607763 23.83409726 822.00714504 22.84765625 820.87890625 C16.20222487 813.21912393 9.87874445 805.38621419 3.8046875 797.265625 C3.00393799 796.20384033 3.00393799 796.20384033 2.18701172 795.12060547 C-12.73784025 775.30926513 -26.19447084 754.50003495 -37.9453125 732.640625 C-38.44840942 731.70839111 -38.44840942 731.70839111 -38.96166992 730.75732422 C-41.1953125 726.51888354 -41.1953125 726.51888354 -41.1953125 724.265625 C-41.76393005 724.19569336 -42.33254761 724.12576172 -42.918396 724.05371094 C-61.87397629 721.71672802 -80.80756178 719.22112307 -99.73834229 716.69229126 C-104.27330626 716.08653562 -108.80845008 715.48214147 -113.34375 714.87890625 C-114.12142353 714.77543695 -114.89909706 714.67196766 -115.70033646 714.56536293 C-128.18981559 712.90597245 -140.68681219 711.31127949 -153.18757629 709.73937607 C-158.97298504 709.01014591 -164.75732535 708.27248058 -170.54165649 707.53475761 C-176.1949856 706.81479414 -181.84984433 706.10878501 -187.50612068 705.41237926 C-191.0457339 704.97316261 -194.58356335 704.52070397 -198.12104416 704.06466103 C-199.77151977 703.85467828 -201.42271012 703.65022863 -203.07460403 703.45171165 C-205.34598666 703.17801875 -207.61402816 702.88472179 -209.88232422 702.58666992 C-211.1561496 702.42728439 -212.42997498 702.26789886 -213.74240112 702.10368347 C-218.83947641 700.86656886 -222.15730881 698.77240455 -225.1328125 694.453125 C-226.46204463 690.46542861 -226.34959777 688.30562345 -225.1953125 684.265625 C-223.06942521 680.85502885 -221.10394087 678.56850112 -217.1953125 677.265625 C-211.36712397 677.03940864 -205.91131753 677.59962112 -200.16381836 678.515625 C-199.29416915 678.64921984 -198.42451994 678.78281467 -197.52851772 678.92045784 C-194.65483626 679.36326687 -191.78254141 679.81449043 -188.91015625 680.265625 C-186.87204871 680.5810588 -184.83384879 680.89589628 -182.79556274 681.21017456 C-178.47575459 681.87723302 -174.15650288 682.54774167 -169.837677 683.22113037 C-159.79234643 684.78719968 -149.74446692 686.33676398 -139.69655418 687.88616562 C-137.48089477 688.22787915 -135.26526902 688.56981107 -133.0496769 688.9119606 C-112.39907359 692.10039214 -91.73274645 695.15824319 -71.04467773 698.09375 C-70.02514008 698.239263 -69.00560242 698.384776 -67.95516968 698.53469849 C-66.10994818 698.79769283 -64.26437475 699.05823673 -62.41836548 699.31564331 C-59.22849174 699.7698143 -56.25933003 700.24428582 -53.1953125 701.265625 C-53.43540039 700.72711914 -53.67548828 700.18861328 -53.92285156 699.63378906 C-67.55381519 668.74292228 -77.82795822 636.43316422 -84.1953125 603.265625 C-106.42562301 595.56159255 -129.53751253 591.59039361 -152.64764404 587.58712769 C-171.98474733 584.22813444 -191.29444736 580.58619012 -210.5078125 576.578125 C-211.39597656 576.40007324 -212.28414062 576.22202148 -213.19921875 576.03857422 C-219.8639799 574.60423588 -226.61175599 572.59755159 -231.1953125 567.265625 C-232.33210689 563.61164302 -232.34926456 561.72748117 -231.1328125 558.078125 C-228.7747477 554.65512771 -227.03292633 553.80067053 -223.1953125 552.265625 C-201.172774 550.77395059 -176.96750371 557.89152076 -155.5703125 562.390625 C-154.44485016 562.62496246 -153.31938782 562.85929993 -152.15982056 563.10073853 C-130.68916379 567.57888949 -109.40684413 572.6951969 -88.1953125 578.265625 C-88.28619141 577.64486084 -88.37707031 577.02409668 -88.47070312 576.38452148 C-92.29406745 548.7999282 -91.49265087 521.0464228 -91.1953125 493.265625 C-92.1234375 492.9975 -93.0515625 492.729375 -94.0078125 492.453125 C-97.14255063 491.28528138 -98.16802393 490.77888331 -100.1953125 488.265625 C-101.23028564 485.80198669 -101.23028564 485.80198669 -102.16894531 482.82983398 C-102.52651917 481.71273544 -102.88409302 480.5956369 -103.25250244 479.44468689 C-103.63066101 478.2293074 -104.00881958 477.01392792 -104.3984375 475.76171875 C-104.80271094 474.48287103 -105.20765147 473.20423403 -105.61322021 471.92579651 C-106.46625111 469.22991739 -107.31288924 466.53214036 -108.15478516 463.83276367 C-109.20823168 460.45590389 -110.27422844 457.08318922 -111.34472179 453.71170044 C-118.75025191 430.36912563 -125.58489612 406.92429046 -130.3828125 382.890625 C-130.54896057 382.06998566 -130.71510864 381.24934631 -130.8862915 380.40383911 C-137.87665279 345.79035653 -141.31516815 310.99031225 -141.3984375 275.69140625 C-141.40541552 273.84901914 -141.41245649 272.00663226 -141.41955566 270.16424561 C-141.43885229 264.30220241 -141.44373171 258.44019649 -141.4453125 252.578125 C-141.44590164 251.5812907 -141.44649078 250.58445641 -141.44709778 249.55741501 C-141.45970398 219.36500156 -141.18134447 189.33711868 -138.1953125 159.265625 C-138.12270203 158.50971069 -138.05009155 157.75379639 -137.97528076 156.97497559 C-136.95656341 146.37015933 -135.68812058 135.81381579 -134.1953125 125.265625 C-134.03322296 124.11513672 -134.03322296 124.11513672 -133.86785889 122.94140625 C-126.12419789 68.29918485 -126.12419789 68.29918485 -116.1953125 47.265625 C-115.52242187 45.81736328 -115.52242187 45.81736328 -114.8359375 44.33984375 C-105.05997927 24.92523006 -88.19980964 12.75723699 -67.90673828 6.0300293 C-56.61701862 2.46334947 -45.42753495 0.94676289 -33.6328125 0.140625 C-32.47845703 0.05425781 -31.32410156 -0.03210938 -30.13476562 -0.12109375 C-19.9987462 -0.8455058 -10.1241691 -0.86174008 0 0 Z " fill="#FEFEFE" transform="translate(363.1953125,311.734375)"/>
<path d="M0 0 C0.57927246 0.24008789 1.15854492 0.48017578 1.75537109 0.72753906 C56.12306267 23.14090193 111.84043179 38.52082173 170.375 45.25 C171.09308838 45.33308411 171.81117676 45.41616821 172.55102539 45.50177002 C193.13434779 47.85660153 213.61493909 48.24422169 234.3125 48.25 C235.03718475 48.25044186 235.76186951 48.25088371 236.5085144 48.25133896 C258.80242354 48.25846203 280.86563887 47.91428647 303 45 C303.99450165 44.87271515 303.99450165 44.87271515 305.00909424 44.74285889 C350.52782026 38.91690563 393.99958888 27.54107968 437.2265625 12.32128906 C441.47038816 10.8352911 445.7275738 9.4012774 450 8 C450.42410156 8.65226562 450.84820313 9.30453125 451.28515625 9.9765625 C454.10460219 14.17784679 456.70212961 18.02163218 460.6875 21.1875 C463.58439123 23.49213791 465.27480309 25.78983903 466.99609375 29.1171875 C468.08534098 31.16005585 469.31993616 33.02534518 470.625 34.9375 C473.56633121 39.3006 476.38922144 43.73190463 479.1875 48.1875 C479.61562988 48.86482178 480.04375977 49.54214355 480.48486328 50.23999023 C482.88334912 54.07277248 485.00734558 57.93610761 487 62 C487.99885894 63.68817566 488.99885679 65.37567798 490 67.0625 C493.34843888 73.10968067 494.77467673 79.2392251 496 86 C496.66 86 497.32 86 498 86 C498.33 88.64 498.66 91.28 499 94 C499.66 94 500.32 94 501 94 C501.63753123 95.74547384 502.25912145 97.49676909 502.875 99.25 C503.22304687 100.22453125 503.57109375 101.1990625 503.9296875 102.203125 C504.83468619 105.41355832 505.35341508 108.34066535 505.80859375 111.62890625 C506.8957498 118.48266988 509.36496104 124.38294593 512.1875 130.6875 C513.18404609 132.97897 514.18013977 135.27063681 515.17578125 137.5625 C515.65998535 138.66464844 516.14418945 139.76679687 516.64306641 140.90234375 C529.69059374 170.68770302 529.69059374 170.68770302 531 184 C532.97359296 193.51525439 536.05799833 202.72987469 539.03756714 211.96444702 C544.56474761 229.1119801 549.87673619 246.31880022 555.05444336 263.57470703 C555.59874369 265.38836193 556.14309611 267.20200119 556.6875 269.015625 C556.95812759 269.91751556 557.22875519 270.81940613 557.50758362 271.74862671 C559.45139509 278.21255264 561.4360708 284.66308267 563.4375 291.109375 C613.29696719 451.97178425 613.29696719 451.97178425 613.87402344 529.64355469 C613.98397303 531.70020876 614.23620265 533.74826006 614.51196289 535.78930664 C615.02973189 539.78722505 615.05675194 543.66458341 614.94921875 547.69921875 C614.93125748 548.4076593 614.9132962 549.11609985 614.89479065 549.8460083 C614.83370246 552.12682118 614.76199026 554.40708757 614.6875 556.6875 C614.66288696 557.4716629 614.63827393 558.25582581 614.61291504 559.06375122 C612.55700156 623.15252296 595.5173119 686.46182641 547.63525391 731.50830078 C509.09671209 766.66364424 454.83497614 777.18598472 404.17919922 774.87109375 C374.58021149 773.28297953 346.04546503 766.32133363 320 752 C319.32888184 751.6376123 318.65776367 751.27522461 317.96630859 750.90185547 C299.23191907 740.77147296 282.38316647 728.72836173 267 714 C266.43635742 713.46890625 265.87271484 712.9378125 265.29199219 712.390625 C252.2182561 700.03157686 231.19058386 678.77035672 229.76171875 659.84375 C229.73722656 658.7403125 229.71273438 657.636875 229.6875 656.5 C229.39442494 652.4564801 229.15389188 650.28125067 227.1875 646.6875 C222.18618397 644.03974446 217.52442622 644.11364669 212 645 C208.52579837 646.38965137 208.52579837 646.38965137 207 650 C206.86036221 652.08031813 206.78594292 654.1653105 206.75 656.25 C206.06306905 673.99881048 190.94753173 691.15748569 179.30078125 703.546875 C177.29192611 705.68874432 175.38869907 707.87802312 173.5 710.125 C159.85193836 725.69133758 141.65945469 737.49797581 124 748 C123.06220703 748.56195068 123.06220703 748.56195068 122.10546875 749.13525391 C98.49323037 763.08139581 71.25359625 771.46554721 44 774 C43.01515625 774.10957031 42.0303125 774.21914062 41.015625 774.33203125 C-8.0992482 779.10355391 -63.7518904 770.00533305 -103 738.375 C-104.67982472 736.93184277 -106.34696077 735.47376225 -108 734 C-108.85980469 733.24847656 -109.71960938 732.49695312 -110.60546875 731.72265625 C-113.10157783 729.51354307 -115.55629128 727.26680725 -118 725 C-118.64195312 724.42378906 -119.28390625 723.84757812 -119.9453125 723.25390625 C-130.90526329 712.95888971 -139.65869349 699.93890023 -146.94824219 686.85839844 C-147.98341965 685.02929656 -149.06839338 683.23867226 -150.1640625 681.4453125 C-162.1340863 661.16896234 -168.78478001 636.01556185 -173 613 C-173.14872559 612.19498047 -173.29745117 611.38996094 -173.45068359 610.56054688 C-176.86514381 591.61086621 -178.33923537 572.74008917 -178.1875 553.5 C-178.17994386 551.67065556 -178.17270504 549.84130979 -178.16577148 548.01196289 C-178.10975577 537.14977709 -177.92835379 526.29379798 -177.5625 515.4375 C-177.52342529 514.27347656 -177.48435059 513.10945313 -177.4440918 511.91015625 C-177.13012929 504.13012929 -177.13012929 504.13012929 -176 503 C-175.58882712 500.57839193 -175.23256343 498.16785745 -174.90625 495.734375 C-174.68434582 494.15019228 -174.46156372 492.56613235 -174.23803711 490.98217773 C-174.05940628 489.70877029 -174.05940628 489.70877029 -173.87716675 488.40963745 C-166.1490703 433.9140202 -153.61117357 379.76275057 -138 327 C-137.77671021 326.24390442 -137.55342041 325.48780884 -137.32336426 324.70880127 C-133.63553919 312.23829195 -129.84226873 299.80050566 -126.03106689 287.36724854 C-124.91544673 283.72386673 -123.80286907 280.0795613 -122.69091797 276.43505859 C-105.91163063 221.45020984 -105.91163063 221.45020984 -97 194.125 C-96.71649689 193.25480225 -96.43299377 192.38460449 -96.14089966 191.48803711 C-93.48313992 183.34659733 -90.80545282 175.22816385 -87.76171875 167.22070312 C-86.98391634 164.95310995 -86.45983874 162.7259953 -86 160.375 C-85.38673535 157.33534044 -84.53053376 154.79308215 -83.1875 152 C-80.84373474 147.06166065 -79.45227113 141.92394233 -78.10229492 136.64257812 C-76.59396846 131.10354829 -74.18887126 126.28581533 -71.56494141 121.19213867 C-68.95942633 115.87745697 -66.93630211 110.35590711 -64.875 104.8125 C-60.14758289 92.20361503 -60.14758289 92.20361503 -57.8671875 86.765625 C-57.57183105 86.05825195 -57.27647461 85.35087891 -56.97216797 84.62207031 C-56 83 -56 83 -53.25 81.9375 C-52.5075 81.958125 -51.765 81.97875 -51 82 C-50.90074219 81.45472656 -50.80148437 80.90945313 -50.69921875 80.34765625 C-49.81878595 77.39156624 -48.40564299 75.07867083 -46.8125 72.4375 C-44.53934785 68.62135973 -42.33042065 64.79929201 -40.25 60.875 C-37.47032476 55.73522315 -34.47621292 50.73927914 -31.4375 45.75 C-30.97827148 44.99315918 -30.51904297 44.23631836 -30.04589844 43.45654297 C-27.543211 39.37420228 -24.931987 35.43085628 -22.10449219 31.56665039 C-20.86296281 29.85601099 -20.86296281 29.85601099 -19.45703125 27.32421875 C-17.81505164 24.70497513 -15.95872708 22.90328417 -13.6875 20.8125 C-7.45566574 14.7326617 -3.82752348 7.73338808 0 0 Z " fill="#FEFEFE" transform="translate(575,1268)"/>
<path d="M0 0 C0.94179108 0.07766602 1.88358215 0.15533203 2.85391235 0.23535156 C5.87981706 0.48845746 8.90483249 0.75027844 11.9296875 1.015625 C13.4848407 1.15200378 13.4848407 1.15200378 15.07141113 1.2911377 C30.12034552 2.62694525 45.01583401 4.08428816 59.8046875 7.265625 C61.01753418 7.5229541 62.23038086 7.7802832 63.47998047 8.04541016 C96.60386504 15.14959047 128.76610916 25.19616221 160.61001587 36.68032837 C166.34665266 38.7485402 172.09626866 40.77732979 177.8515625 42.79296875 C181.31588604 44.01080788 184.77912228 45.23171313 188.2421875 46.453125 C189.52955307 46.905737 189.52955307 46.905737 190.84292603 47.36749268 C201.42876153 51.10008697 211.88590099 55.05966805 222.26953125 59.32421875 C224.3607217 60.17497643 226.45194865 61.0256444 228.54321289 61.8762207 C232.5555461 63.51032984 236.54579192 65.18780781 240.52905273 66.89135742 C252.49969896 72.15380522 252.49969896 72.15380522 265.06591797 70.44287109 C265.96971191 70.05437988 266.87350586 69.66588867 267.8046875 69.265625 C269.9040812 68.64130094 272.01146254 68.04337496 274.125 67.46875 C275.2190918 67.15333252 276.31318359 66.83791504 277.44042969 66.51293945 C323.94987497 53.21941273 372.45792878 46.2852403 420.8046875 45.265625 C421.76020508 45.24371094 422.71572266 45.22179687 423.70019531 45.19921875 C481.38666776 44.06774168 540.72198618 51.08804618 595.87792969 68.22021484 C596.82313477 68.5033252 597.76833984 68.78643555 598.7421875 69.078125 C599.55558594 69.33207031 600.36898437 69.58601563 601.20703125 69.84765625 C607.27735254 70.82438464 612.73936286 68.76155694 618.31640625 66.5625 C619.02855286 66.2889418 619.74069946 66.01538361 620.47442627 65.73353577 C622.01062593 65.14295 623.54563763 64.54926661 625.07955933 63.95278931 C629.25729111 62.32998594 633.44560218 60.73486962 637.6328125 59.13671875 C638.49144394 58.80842575 639.35007538 58.48013275 640.23472595 58.14189148 C652.91325179 53.30270975 665.68531685 48.72645863 678.46826172 44.171875 C682.33747427 42.79210041 686.20292747 41.40220794 690.06689453 40.0078125 C717.7153635 30.03580343 745.25251219 20.31831886 773.8046875 13.265625 C775.15236286 12.92813621 776.5000191 12.59057103 777.84765625 12.25292969 C815.76329094 2.82147407 856.67862812 -3.06031227 895.8046875 0.265625 C896.59133789 0.32379395 897.37798828 0.38196289 898.18847656 0.44189453 C922.40307075 2.28716647 946.53842354 9.97510805 963.5546875 28.078125 C995.1341744 65.11787969 996.09885189 130.5139301 999.4296875 176.9609375 C999.49433386 177.86220493 999.55898022 178.76347237 999.62558556 179.69205093 C1001.18728088 202.10613867 1001.22367638 224.49884696 1001.1272583 246.95690918 C1001.1137354 251.23194751 1001.11911697 255.50688355 1001.12412167 259.78193378 C1001.14410045 282.35080644 1000.96693923 304.7820497 998.8046875 327.265625 C998.73152313 328.05219482 998.65835876 328.83876465 998.58297729 329.64916992 C998.17969168 333.88839745 997.68392235 338.10785809 997.1171875 342.328125 C996.95130127 343.58085205 996.78541504 344.8335791 996.61450195 346.12426758 C991.58668082 382.89356448 983.0644718 419.56143806 970.64160156 454.54052734 C967.99995122 462.01921723 967.99995122 462.01921723 967.9296875 469.890625 C968.05601563 471.05980469 968.18234375 472.22898437 968.3125 473.43359375 C968.47492188 474.69816406 968.63734375 475.96273438 968.8046875 477.265625 C969.05959293 479.48614584 969.30553768 481.70753798 969.55029297 483.92919922 C969.71181832 485.37300642 969.87940506 486.81615851 970.05517578 488.25830078 C971.68707638 501.97456904 971.96539837 515.63290384 971.93505859 529.42700195 C971.92968951 532.32703867 971.9350417 535.22692102 971.94140625 538.12695312 C971.95269698 565.96960603 971.95269698 565.96960603 969.8046875 570.265625 C970.8477002 570.029646 971.89071289 569.79366699 972.96533203 569.55053711 C992.37484621 565.17149746 1011.79744533 560.93391394 1031.3671875 557.328125 C1032.13508606 557.18519012 1032.90298462 557.04225525 1033.69415283 556.89498901 C1069.11633703 550.32913242 1069.11633703 550.32913242 1076.6796875 553.453125 C1079.21293972 555.61384013 1080.5378521 557.16891624 1081.8046875 560.265625 C1081.88332853 564.66952263 1081.37799566 566.59934794 1078.4921875 569.953125 C1070.88568178 575.50042966 1060.31780543 576.96875051 1051.2421875 578.515625 C1048.88266137 578.93534921 1046.52329823 579.35599028 1044.1640625 579.77734375 C1043.52482346 579.89029282 1042.88558441 580.00324188 1042.22697449 580.11961365 C1033.74979239 581.6194331 1025.29042472 583.21558319 1016.82839966 584.79821777 C1012.17916472 585.66686337 1007.52905004 586.53076641 1002.87890625 587.39453125 C1001.99718246 587.55831268 1001.11545868 587.72209412 1000.20701599 587.89083862 C998.51625195 588.20486856 996.82548175 588.51886537 995.13470459 588.83282471 C993.01502623 589.22655461 990.89544005 589.62077642 988.77587891 590.01513672 C985.61934067 590.60153267 982.46220547 591.1845321 979.3046875 591.765625 C978.44641357 591.92554932 977.58813965 592.08547363 976.70385742 592.25024414 C973.69137876 592.80118671 970.87450791 593.265625 967.8046875 593.265625 C967.67006104 594.20523071 967.67006104 594.20523071 967.53271484 595.16381836 C963.19489964 624.94240657 955.79262423 653.72928605 945.5703125 682.02734375 C945.10537747 683.3206688 944.64069518 684.61408473 944.17626953 685.90759277 C943.05487583 689.02783433 941.93097711 692.14714808 940.8046875 695.265625 C951.44777199 693.65706033 962.09084624 692.04842798 972.73390865 690.43971729 C978.64219039 689.54667635 984.5504773 688.65366966 990.45877647 687.76074409 C992.37475992 687.47115349 994.29073614 687.18151502 996.20670509 686.89182854 C1000.95442384 686.1740221 1005.70224319 685.45689568 1010.45028687 684.74124146 C1018.41614535 683.53981623 1026.38143861 682.33589158 1034.34159374 681.09715366 C1037.40995547 680.6196756 1040.47883647 680.14558218 1043.5477314 679.67154503 C1045.61552255 679.35041527 1047.68237392 679.02367521 1049.74925232 678.69673157 C1051.59922569 678.4111866 1051.59922569 678.4111866 1053.48657227 678.11987305 C1054.54562271 677.95376022 1055.60467316 677.7876474 1056.69581604 677.61650085 C1062.64432548 676.94513558 1066.88513825 676.57596306 1071.8046875 680.265625 C1074.52680311 682.55193392 1075.28243394 684.11349492 1075.6796875 687.640625 C1076.01448089 691.76527962 1075.50146423 693.99096755 1072.8046875 697.265625 C1066.35182103 704.69301602 1049.14371703 703.74593259 1039.828125 704.9453125 C1037.85637878 705.20163758 1035.88466928 705.45824524 1033.91299438 705.71511841 C1028.72091698 706.3906816 1023.5282995 707.06200426 1018.33557129 707.73254395 C1014.1892493 708.26869659 1010.0433309 708.80792999 1005.89742661 709.34730148 C994.09266535 710.88304058 982.28639119 712.40675219 970.47898865 713.92204285 C967.89021484 714.25463683 965.301593 714.58838909 962.7130127 714.92248535 C958.90343037 715.41386573 955.09337672 715.90139249 951.28285599 716.38544083 C949.28766117 716.63965723 947.29291502 716.89738737 945.29818726 717.15524292 C943.5295079 717.37834641 943.5295079 717.37834641 941.72509766 717.60595703 C940.21358627 717.79884811 940.21358627 717.79884811 938.67153931 717.99563599 C935.69895166 718.27558279 932.78862271 718.31240318 929.8046875 718.265625 C929.56363281 719.07 929.32257813 719.874375 929.07421875 720.703125 C918.61748779 750.04632081 898.54000266 777.65773607 879.8046875 802.265625 C879.36592285 802.84328613 878.9271582 803.42094727 878.47509766 804.01611328 C871.29254826 813.42601291 863.66899034 822.42043 855.8046875 831.265625 C855.35109863 831.77851074 854.89750977 832.29139648 854.43017578 832.81982422 C847.26860591 840.87892765 839.66415758 848.50799475 832.0546875 856.140625 C831.55882141 856.63916992 831.06295532 857.13771484 830.55206299 857.65136719 C824.81664756 863.41027189 818.99945968 869.00015344 812.8046875 874.265625 C811.72137344 875.21468355 810.63929216 876.16515156 809.55859375 877.1171875 C800.61507505 884.91841796 791.32261719 892.18054832 781.8046875 899.265625 C781.09328613 899.79800781 780.38188477 900.33039062 779.64892578 900.87890625 C767.43531707 909.9871724 754.73183592 918.21145625 741.8046875 926.265625 C740.25509708 927.23419703 738.70560784 928.20293097 737.15625 929.171875 C736.05023437 929.8628125 734.94421875 930.55375 733.8046875 931.265625 C737.5047848 933.58076968 741.28333282 935.43494075 745.2421875 937.265625 C752.71279057 940.87284203 758.89121448 945.67936246 765.23974609 950.96826172 C767.41769783 952.77382109 769.64386507 954.51641979 771.8671875 956.265625 C773.51568513 957.59566286 775.16138499 958.92917373 776.8046875 960.265625 C777.76375 961.03777344 778.7228125 961.80992187 779.7109375 962.60546875 C793.47170756 973.84559461 805.7382542 986.20860519 816.1171875 1000.63671875 C818.4588373 1003.86735917 821.00489522 1006.79475195 823.7421875 1009.703125 C828.56871732 1014.84054241 832.79157673 1020.33663557 836.98803711 1025.98999023 C839.76559196 1029.7061398 842.63243238 1033.22018743 845.76953125 1036.640625 C849.98242665 1041.31323702 853.35539766 1046.35238631 856.7421875 1051.640625 C861.72140764 1059.26855061 866.88577974 1066.33976612 872.8046875 1073.265625 C877.38089881 1079.08989393 881.58036921 1085.18446351 885.8046875 1091.265625 C886.92916505 1092.87015793 888.0541671 1094.47432341 889.1796875 1096.078125 C895.44599482 1105.03600056 901.6863516 1114.00466732 907.71484375 1123.125 C909.18603504 1125.33591177 910.6701944 1127.53167423 912.17578125 1129.71875 C921.65687897 1143.56827796 929.45894895 1158.24912411 936.84130859 1173.30224609 C942.99357764 1185.84065149 949.42085724 1198.21624252 956.01611328 1210.52685547 C966.49824157 1230.10542379 975.73776369 1249.91622218 983.77832031 1270.62695312 C984.60652604 1272.75617469 985.44568342 1274.8799137 986.296875 1277 C987.51498069 1280.07312939 988.67379582 1283.15929753 989.8046875 1286.265625 C990.22427734 1287.40862061 990.22427734 1287.40862061 990.65234375 1288.57470703 C1002.26388458 1320.53680922 999.66974288 1350.51598959 991.9921875 1383.078125 C991.83177979 1383.77000916 991.67137207 1384.46189331 991.50610352 1385.17474365 C987.0326077 1404.30069904 979.72380576 1422.20248286 966.8046875 1437.265625 C966.11632813 1438.07515625 965.42796875 1438.8846875 964.71875 1439.71875 C941.52980732 1466.24364584 908.6862207 1480.29909674 874.6796875 1487.203125 C873.69806641 1487.40252686 872.71644531 1487.60192871 871.70507812 1487.80737305 C864.10550482 1489.23962977 856.52081089 1489.83900898 848.8046875 1490.265625 C848.82039795 1491.42682861 848.8361084 1492.58803223 848.85229492 1493.78442383 C849.12733396 1516.12749739 849.34222275 1538.13963625 845.8046875 1560.265625 C845.63308105 1561.37212402 845.46147461 1562.47862305 845.28466797 1563.61865234 C837.980761 1609.60258852 821.05873185 1655.70807778 788.7734375 1690.0859375 C786.77381088 1692.10434169 786.77381088 1692.10434169 785.8046875 1694.265625 C785.1446875 1694.265625 784.4846875 1694.265625 783.8046875 1694.265625 C783.4746875 1695.255625 783.1446875 1696.245625 782.8046875 1697.265625 C782.1446875 1697.265625 781.4846875 1697.265625 780.8046875 1697.265625 C780.4746875 1698.255625 780.1446875 1699.245625 779.8046875 1700.265625 C778.24047852 1701.86572266 778.24047852 1701.86572266 776.24609375 1703.5546875 C775.52180176 1704.16860352 774.79750977 1704.78251953 774.05126953 1705.41503906 C734.4120057 1738.06724726 687.95450289 1752.7961546 636.8046875 1754.265625 C634.94650391 1754.3275 634.94650391 1754.3275 633.05078125 1754.390625 C567.67109621 1755.48142266 508.01051052 1730.16984898 460.8828125 1685.2734375 C452.68630874 1677.31983139 445.40137667 1669.01354902 438.6796875 1659.765625 C438.1228125 1658.99976074 437.5659375 1658.23389648 436.9921875 1657.44482422 C434.43145924 1653.84021699 432.17193644 1650.51928838 430.8046875 1646.265625 C430.1446875 1646.265625 429.4846875 1646.265625 428.8046875 1646.265625 C428.56492187 1646.95785156 428.32515625 1647.65007812 428.078125 1648.36328125 C426.57750383 1651.78340865 424.60929568 1654.69391698 422.4296875 1657.703125 C421.77093628 1658.6156604 421.77093628 1658.6156604 421.09887695 1659.54663086 C409.59754605 1675.23613277 396.15128443 1689.31257134 380.8046875 1701.265625 C379.86882813 1702.03003906 378.93296875 1702.79445313 377.96875 1703.58203125 C338.8141895 1734.93587597 289.93480127 1753.02717965 239.8046875 1754.265625 C238.55300781 1754.30558594 237.30132813 1754.34554687 236.01171875 1754.38671875 C176.73237423 1755.67301694 120.74057419 1738.69670886 77.54785156 1697.39599609 C63.96580714 1684.12719631 52.91130109 1668.90658393 43.8046875 1652.265625 C43.47839355 1651.67346191 43.15209961 1651.08129883 42.81591797 1650.47119141 C24.95292609 1617.59087533 15.21198044 1580.41252519 11.8046875 1543.265625 C11.71711182 1542.3271875 11.62953613 1541.38875 11.53930664 1540.421875 C10.66329087 1529.90660394 10.69082384 1519.43471254 10.7421875 1508.890625 C10.74721683 1507.07552208 10.75177718 1505.2604178 10.75585938 1503.4453125 C10.76674152 1499.05204892 10.78392556 1494.65885254 10.8046875 1490.265625 C9.49431519 1490.19649902 9.49431519 1490.19649902 8.1574707 1490.12597656 C0.26317835 1489.64608037 -7.28657889 1488.70944027 -15.0078125 1487.015625 C-16.03753174 1486.79455078 -17.06725098 1486.57347656 -18.12817383 1486.34570312 C-26.96043689 1484.4048183 -35.60867098 1482.09786802 -44.1953125 1479.265625 C-45.27167969 1478.91113281 -46.34804688 1478.55664062 -47.45703125 1478.19140625 C-74.45180665 1468.53831844 -97.55907636 1451.55054888 -114.1953125 1428.265625 C-114.76765625 1427.4715625 -115.34 1426.6775 -115.9296875 1425.859375 C-137.18268184 1393.40856644 -137.15888876 1351.38662185 -129.9765625 1314.765625 C-124.60464918 1289.32428981 -115.7369566 1265.51949846 -104.1953125 1242.265625 C-103.7607373 1241.38938477 -103.32616211 1240.51314453 -102.87841797 1239.61035156 C-97.91392361 1229.704643 -92.40595543 1220.19487725 -86.65405273 1210.72924805 C-79.55033423 1198.98144657 -73.39012634 1186.8387959 -67.52807617 1174.43041992 C-59.38453504 1157.21889649 -50.36580569 1140.75754753 -39.2890625 1125.24609375 C-37.0691182 1122.08598648 -35.00054735 1118.84590685 -32.9453125 1115.578125 C-27.87068816 1107.56191953 -22.27360366 1099.93060903 -16.66992188 1092.27929688 C-14.73314992 1089.63451292 -12.80819323 1086.98120869 -10.8828125 1084.328125 C-9.96048828 1083.06355469 -9.96048828 1083.06355469 -9.01953125 1081.7734375 C-7.74571432 1080.02228018 -6.47795799 1078.26670531 -5.21484375 1076.5078125 C-2.02397429 1072.07639224 1.20887965 1067.73216868 4.6796875 1063.515625 C8.00088058 1059.42599901 10.92396692 1055.16804967 13.8046875 1050.765625 C18.75857809 1043.20601249 24.16792222 1036.20760254 30.1796875 1029.453125 C33.19231712 1026.06391667 35.94523488 1022.50460431 38.6796875 1018.890625 C41.69363868 1014.90984912 44.77340369 1011.11241177 48.1796875 1007.453125 C51.34468811 1004.03448323 54.13146638 1000.50457055 56.84448242 996.72998047 C66.92512139 982.7374266 79.19509635 970.81495892 92.8046875 960.265625 C93.98922411 959.30615034 95.17135645 958.34370275 96.3515625 957.37890625 C107.15719632 948.56792312 117.99470709 939.98847932 130.8046875 934.265625 C131.44970215 933.97381348 132.0947168 933.68200195 132.75927734 933.38134766 C134.93777859 932.39768387 137.12007918 931.42314636 139.3046875 930.453125 C140.36586792 929.98108643 140.36586792 929.98108643 141.44848633 929.49951172 C146.56630963 927.265625 146.56630963 927.265625 148.8046875 927.265625 C146.02469326 924.05793934 142.459176 922.11637719 138.8671875 919.953125 C118.80520092 907.62169983 99.82392481 893.41110463 81.8046875 878.265625 C81.2890625 877.83491699 80.7734375 877.40420898 80.2421875 876.96044922 C66.80490322 865.71385427 54.15476354 853.69008173 41.7421875 841.328125 C40.56426636 840.15721313 40.56426636 840.15721313 39.36254883 838.96264648 C34.63791905 834.22486604 30.15256655 829.34971583 25.8046875 824.265625 C24.81974518 823.13607763 23.83409726 822.00714504 22.84765625 820.87890625 C16.20222487 813.21912393 9.87874445 805.38621419 3.8046875 797.265625 C3.00393799 796.20384033 3.00393799 796.20384033 2.18701172 795.12060547 C-12.73784025 775.30926513 -26.19447084 754.50003495 -37.9453125 732.640625 C-38.44840942 731.70839111 -38.44840942 731.70839111 -38.96166992 730.75732422 C-41.1953125 726.51888354 -41.1953125 726.51888354 -41.1953125 724.265625 C-41.76393005 724.19569336 -42.33254761 724.12576172 -42.918396 724.05371094 C-61.87397629 721.71672802 -80.80756178 719.22112307 -99.73834229 716.69229126 C-104.27330626 716.08653562 -108.80845008 715.48214147 -113.34375 714.87890625 C-114.12142353 714.77543695 -114.89909706 714.67196766 -115.70033646 714.56536293 C-128.18981559 712.90597245 -140.68681219 711.31127949 -153.18757629 709.73937607 C-158.97298504 709.01014591 -164.75732535 708.27248058 -170.54165649 707.53475761 C-176.1949856 706.81479414 -181.84984433 706.10878501 -187.50612068 705.41237926 C-191.0457339 704.97316261 -194.58356335 704.52070397 -198.12104416 704.06466103 C-199.77151977 703.85467828 -201.42271012 703.65022863 -203.07460403 703.45171165 C-205.34598666 703.17801875 -207.61402816 702.88472179 -209.88232422 702.58666992 C-211.1561496 702.42728439 -212.42997498 702.26789886 -213.74240112 702.10368347 C-218.83947641 700.86656886 -222.15730881 698.77240455 -225.1328125 694.453125 C-226.46204463 690.46542861 -226.34959777 688.30562345 -225.1953125 684.265625 C-223.06942521 680.85502885 -221.10394087 678.56850112 -217.1953125 677.265625 C-211.36712397 677.03940864 -205.91131753 677.59962112 -200.16381836 678.515625 C-199.29416915 678.64921984 -198.42451994 678.78281467 -197.52851772 678.92045784 C-194.65483626 679.36326687 -191.78254141 679.81449043 -188.91015625 680.265625 C-186.87204871 680.5810588 -184.83384879 680.89589628 -182.79556274 681.21017456 C-178.47575459 681.87723302 -174.15650288 682.54774167 -169.837677 683.22113037 C-159.79234643 684.78719968 -149.74446692 686.33676398 -139.69655418 687.88616562 C-137.48089477 688.22787915 -135.26526902 688.56981107 -133.0496769 688.9119606 C-112.39907359 692.10039214 -91.73274645 695.15824319 -71.04467773 698.09375 C-70.02514008 698.239263 -69.00560242 698.384776 -67.95516968 698.53469849 C-66.10994818 698.79769283 -64.26437475 699.05823673 -62.41836548 699.31564331 C-59.22849174 699.7698143 -56.25933003 700.24428582 -53.1953125 701.265625 C-53.43540039 700.72711914 -53.67548828 700.18861328 -53.92285156 699.63378906 C-67.55381519 668.74292228 -77.82795822 636.43316422 -84.1953125 603.265625 C-106.42562301 595.56159255 -129.53751253 591.59039361 -152.64764404 587.58712769 C-171.98474733 584.22813444 -191.29444736 580.58619012 -210.5078125 576.578125 C-211.39597656 576.40007324 -212.28414062 576.22202148 -213.19921875 576.03857422 C-219.8639799 574.60423588 -226.61175599 572.59755159 -231.1953125 567.265625 C-232.33210689 563.61164302 -232.34926456 561.72748117 -231.1328125 558.078125 C-228.7747477 554.65512771 -227.03292633 553.80067053 -223.1953125 552.265625 C-201.172774 550.77395059 -176.96750371 557.89152076 -155.5703125 562.390625 C-154.44485016 562.62496246 -153.31938782 562.85929993 -152.15982056 563.10073853 C-130.68916379 567.57888949 -109.40684413 572.6951969 -88.1953125 578.265625 C-88.28619141 577.64486084 -88.37707031 577.02409668 -88.47070312 576.38452148 C-92.29406745 548.7999282 -91.49265087 521.0464228 -91.1953125 493.265625 C-92.1234375 492.9975 -93.0515625 492.729375 -94.0078125 492.453125 C-97.14255063 491.28528138 -98.16802393 490.77888331 -100.1953125 488.265625 C-101.23028564 485.80198669 -101.23028564 485.80198669 -102.16894531 482.82983398 C-102.52651917 481.71273544 -102.88409302 480.5956369 -103.25250244 479.44468689 C-103.63066101 478.2293074 -104.00881958 477.01392792 -104.3984375 475.76171875 C-104.80271094 474.48287103 -105.20765147 473.20423403 -105.61322021 471.92579651 C-106.46625111 469.22991739 -107.31288924 466.53214036 -108.15478516 463.83276367 C-109.20823168 460.45590389 -110.27422844 457.08318922 -111.34472179 453.71170044 C-118.75025191 430.36912563 -125.58489612 406.92429046 -130.3828125 382.890625 C-130.54896057 382.06998566 -130.71510864 381.24934631 -130.8862915 380.40383911 C-137.87665279 345.79035653 -141.31516815 310.99031225 -141.3984375 275.69140625 C-141.40541552 273.84901914 -141.41245649 272.00663226 -141.41955566 270.16424561 C-141.43885229 264.30220241 -141.44373171 258.44019649 -141.4453125 252.578125 C-141.44590164 251.5812907 -141.44649078 250.58445641 -141.44709778 249.55741501 C-141.45970398 219.36500156 -141.18134447 189.33711868 -138.1953125 159.265625 C-138.12270203 158.50971069 -138.05009155 157.75379639 -137.97528076 156.97497559 C-136.95656341 146.37015933 -135.68812058 135.81381579 -134.1953125 125.265625 C-134.03322296 124.11513672 -134.03322296 124.11513672 -133.86785889 122.94140625 C-126.12419789 68.29918485 -126.12419789 68.29918485 -116.1953125 47.265625 C-115.52242187 45.81736328 -115.52242187 45.81736328 -114.8359375 44.33984375 C-105.05997927 24.92523006 -88.19980964 12.75723699 -67.90673828 6.0300293 C-56.61701862 2.46334947 -45.42753495 0.94676289 -33.6328125 0.140625 C-32.47845703 0.05425781 -31.32410156 -0.03210938 -30.13476562 -0.12109375 C-19.9987462 -0.8455058 -10.1241691 -0.86174008 0 0 Z M-88.1953125 39.265625 C-129.00083023 89.64200901 -120.31077511 192.73299156 -120.43984604 254.13487244 C-120.44518825 256.40043226 -120.45329941 258.66596874 -120.46182251 260.93151855 C-120.69212042 332.68801365 -107.89249356 399.55872759 -88.1953125 468.265625 C-87.5353125 467.935625 -86.8753125 467.605625 -86.1953125 467.265625 C-85.66611214 464.99437883 -85.25720442 462.6949467 -84.8984375 460.390625 C-84.66241979 458.92616435 -84.42624796 457.46172853 -84.18994141 455.99731445 C-84.06854797 455.22441071 -83.94715454 454.45150696 -83.82208252 453.65518188 C-81.35080847 437.9818278 -78.21745613 422.62348856 -74.1953125 407.265625 C-74.11228882 408.14915649 -74.11228882 408.14915649 -74.02758789 409.05053711 C-73.77177277 411.76814015 -73.51479872 414.48563246 -73.2578125 417.203125 C-73.17080078 418.12931641 -73.08378906 419.05550781 -72.99414062 420.00976562 C-72.81839619 421.86484573 -72.63822122 423.71951144 -72.45361328 425.57373047 C-72.28695176 427.31060184 -72.13815356 429.04932414 -72.01123047 430.78955078 C-71.63815834 435.4974355 -71.63815834 435.4974355 -69.67578125 439.73046875 C-67.41812437 443.59648278 -67.62133926 447.42353259 -67.5078125 451.828125 C-67.47582764 452.73071045 -67.44384277 453.6332959 -67.41088867 454.56323242 C-67.32533561 457.13051617 -67.25934969 459.6977337 -67.1953125 462.265625 C-67.1540625 463.31234375 -67.1128125 464.3590625 -67.0703125 465.4375 C-66.96610131 469.84042286 -67.16024313 474.14866974 -67.64453125 478.5234375 C-70.70644026 506.75240646 -70.83754606 536.43764267 -67.50292969 564.65039062 C-67.29073246 566.45440387 -67.09719422 568.26067611 -66.91894531 570.06835938 C-66.65155897 572.76473954 -66.33853511 575.45136162 -66.0078125 578.140625 C-65.93135498 578.92711426 -65.85489746 579.71360352 -65.77612305 580.52392578 C-65.49771003 582.97600377 -65.49771003 582.97600377 -64.1953125 586.265625 C-61.64899831 587.86990919 -60.03388693 588.49973238 -57.1953125 589.265625 C-56.26211182 589.55244141 -55.32891113 589.83925781 -54.36743164 590.13476562 C-51.02783434 591.15099676 -47.67598946 592.11640162 -44.3203125 593.078125 C-13.38915315 602.12024452 -13.38915315 602.12024452 -5.1953125 608.265625 C-3.81406232 611.02812536 -4.00451944 613.21293599 -4.1953125 616.265625 C-6.1953125 618.265625 -6.1953125 618.265625 -9.21435547 618.54101562 C-13.99919917 618.21001454 -18.28306265 617.13824534 -22.890625 615.859375 C-23.80109589 615.61521851 -24.71156677 615.37106201 -25.64962769 615.11950684 C-28.54215188 614.34310599 -31.43142239 613.55543165 -34.3203125 612.765625 C-37.21655641 611.97670298 -40.11340896 611.19043636 -43.01242065 610.41174316 C-44.81155853 609.92826113 -46.60911505 609.43884504 -48.40481567 608.94274902 C-52.41694606 607.86244037 -55.9971684 606.93518074 -60.1953125 607.265625 C-55.01425044 637.61184564 -44.76916303 668.59825226 -31.16455078 696.23779297 C-30.49576483 697.6370212 -29.87685814 699.06080537 -29.30029297 700.50048828 C-27.73954931 704.18523285 -26.99121346 705.8874385 -23.28515625 707.6484375 C-21.92916642 707.89774019 -20.56352345 708.09574547 -19.1953125 708.265625 C-17.72795654 708.48557129 -17.72795654 708.48557129 -16.23095703 708.70996094 C-11.54532333 709.38999012 -6.85260917 710.00414628 -2.15429688 710.58984375 C6.74483808 711.80538356 13.22451706 713.95263394 20.3046875 719.515625 C21.31015625 720.29679687 21.31015625 720.29679687 22.3359375 721.09375 C22.820625 721.48046875 23.3053125 721.8671875 23.8046875 722.265625 C12.41354942 729.85971706 -2.22505793 727.80446876 -15.1953125 726.265625 C-6.58653599 749.2800426 10.63406316 770.23906632 25.8046875 789.265625 C26.58972656 790.25175781 27.37476563 791.23789063 28.18359375 792.25390625 C30.36352762 794.94860089 32.57359337 797.61314378 34.8046875 800.265625 C35.27793457 800.82910645 35.75118164 801.39258789 36.23876953 801.97314453 C43.93846182 811.12469824 43.93846182 811.12469824 52.25 819.71484375 C53.92896934 821.38959458 55.45506041 823.14755226 56.9921875 824.953125 C63.65846997 832.67039795 71.00143806 839.90413574 78.76953125 846.5078125 C81.21296788 848.6182664 83.56387571 850.81855379 85.9296875 853.015625 C91.71917719 858.2940425 97.81805223 863.09720429 104.01953125 867.87890625 C105.76228134 869.23268367 107.48891021 870.60436698 109.2109375 871.984375 C154.26075761 908.02034302 206.47810743 935.24965756 260.8046875 954.265625 C262.30128906 954.79663818 262.30128906 954.79663818 263.828125 955.33837891 C321.61104434 975.75207273 383.35569259 985.52540436 444.5546875 985.453125 C445.587146 985.45218842 446.61960449 985.45125183 447.68334961 985.45028687 C542.91571602 985.26395628 637.31246743 961.20055398 773.8046875 877.265625 C774.99063914 876.35644949 776.17683555 875.44759318 777.36328125 874.5390625 C794.09782829 861.64275693 809.71495734 847.41231894 824.6796875 832.515625 C825.3814209 831.81856445 826.0831543 831.12150391 826.80615234 830.40332031 C831.34269848 825.85274919 835.61697772 821.13696736 839.8046875 816.265625 C840.8618961 815.06258343 841.92046003 813.86073135 842.98046875 812.66015625 C849.91686452 804.75855446 856.54473473 796.71517834 862.8046875 788.265625 C863.28873047 787.61819336 863.77277344 786.97076172 864.27148438 786.30371094 C879.13942974 766.36416504 894.80934794 744.60467601 903.8046875 721.265625 C897.53470539 721.13440644 891.69951579 721.56450658 885.51953125 722.578125 C883.75329846 722.85184177 881.98702093 723.1252699 880.22070312 723.3984375 C877.49119667 723.82852677 874.76238615 724.26236874 872.03442383 724.70214844 C840.93317365 729.68377064 840.93317365 729.68377064 825.8046875 723.265625 C841.36059387 707.33114569 867.16128192 708.47458088 888.10424805 705.74511719 C891.93959612 705.2424156 895.77255722 704.72403371 899.60546875 704.203125 C901.37716179 703.97798218 901.37716179 703.97798218 903.18464661 703.74829102 C904.27395981 703.59803467 905.36327301 703.44777832 906.4855957 703.29296875 C907.44327347 703.16656006 908.40095123 703.04015137 909.38764954 702.90991211 C912.11771676 702.18218373 913.09215804 701.47704346 914.8046875 699.265625 C916.07840002 696.73622419 917.21892926 694.25006862 918.3046875 691.640625 C918.64363037 690.82650146 918.98257324 690.01237793 919.33178711 689.17358398 C928.50397836 666.52864942 935.45160203 643.08384799 940.8046875 619.265625 C940.99530762 618.42193359 941.18592773 617.57824219 941.38232422 616.70898438 C942.75870254 610.52118633 943.96652948 604.64410287 943.8046875 598.265625 C936.67793071 598.92743017 929.9853151 600.65424278 923.08203125 602.50390625 C921.25461143 602.9869648 921.25461143 602.9869648 919.39027405 603.4797821 C916.16138968 604.33432017 912.93376316 605.19332447 909.70666504 606.05456543 C906.47016331 606.91713648 903.23206877 607.77365824 899.99414062 608.63085938 C886.89905274 612.0931766 886.89905274 612.0931766 873.82202148 615.62280273 C873.12230728 615.81307541 872.42259308 616.00334808 871.70167542 616.1993866 C869.97970731 616.66889889 868.25905906 617.14324527 866.53857422 617.61816406 C862.74045693 618.5176646 859.67577766 618.7969511 855.8046875 618.265625 C853.8046875 615.265625 853.8046875 615.265625 853.9296875 612.328125 C854.95428914 608.74201926 855.99333826 607.6645166 858.8046875 605.265625 C875.61673969 596.47581862 895.62005238 592.07735594 913.91796875 587.34765625 C914.86950333 587.10149063 915.8210379 586.85532501 916.80140686 586.60169983 C921.55542408 585.37640189 926.31327781 584.16906444 931.07739258 582.98364258 C932.83286665 582.53865941 934.58832009 582.09359486 936.34375 581.6484375 C937.15495804 581.45188065 937.96616608 581.25532379 938.80195618 581.05281067 C942.65669119 580.06711754 945.23244621 579.3353735 947.8046875 576.265625 C948.39870681 574.21059938 948.39870681 574.21059938 948.53515625 571.875 C948.61604492 570.95750977 948.69693359 570.04001953 948.78027344 569.09472656 C948.85020508 568.07862305 948.92013672 567.06251953 948.9921875 566.015625 C949.07114258 564.94022461 949.15009766 563.86482422 949.23144531 562.75683594 C950.56502876 541.93330559 950.87405253 520.55831336 948.9921875 499.765625 C948.92225586 498.97317383 948.85232422 498.18072266 948.78027344 497.36425781 C948.38548675 493.83319762 947.76155684 491.17915781 946.16796875 487.984375 C944.48621908 483.39690884 945.04992997 480.24624079 945.59716797 475.46777344 C945.94304721 470.13065336 944.88953576 465.11154913 943.8671875 459.890625 C941.39448823 446.71921703 941.39448823 446.71921703 941.8046875 442.265625 C943.2421875 440.640625 943.2421875 440.640625 944.8046875 439.265625 C946.0425434 435.26930234 946.23145854 431.14903458 946.55859375 427 C946.62376694 426.20660217 946.68894012 425.41320435 946.75608826 424.59576416 C946.96290496 422.06929371 947.16510652 419.54247821 947.3671875 417.015625 C947.50685699 415.29945436 947.64682748 413.58330819 947.78710938 411.8671875 C948.12979149 407.66694228 948.46833586 403.4663817 948.8046875 399.265625 C949.00626465 399.96123535 949.2078418 400.6568457 949.41552734 401.37353516 C950.33568519 404.54625632 951.25766948 407.71844394 952.1796875 410.890625 C952.65535156 412.53224609 952.65535156 412.53224609 953.140625 414.20703125 C953.45 415.27050781 953.759375 416.33398438 954.078125 417.4296875 C954.50230713 418.89075928 954.50230713 418.89075928 954.93505859 420.38134766 C955.83425608 423.3636944 956.80593282 426.31528072 957.8046875 429.265625 C959.84380687 425.68355685 960.78532408 421.91152115 961.7578125 417.94140625 C961.93856827 417.21617767 962.11932404 416.4909491 962.30555725 415.7437439 C962.89632268 413.35701933 963.47719979 410.96809578 964.0546875 408.578125 C964.25444183 407.75196686 964.45419617 406.92580872 964.66000366 406.07461548 C971.16176108 379.03202562 975.51020631 352.21789444 978.04296875 324.515625 C978.10621338 323.83325272 978.16945801 323.15088043 978.23461914 322.4478302 C979.49192117 308.11473262 979.95741926 293.85045415 979.9375 279.46875 C979.93817721 277.70163968 979.93915065 275.93452945 979.94039917 274.16741943 C979.94186122 270.48318587 979.93977332 266.79897678 979.93505859 263.11474609 C979.92941185 258.48613133 979.93272329 253.85757464 979.93848324 249.22896194 C979.96885656 220.75025715 979.67689069 192.39172063 976.9921875 164.015625 C976.90443054 163.06515289 976.81667358 162.11468079 976.72625732 161.13540649 C973.69675424 93.03883483 973.69675424 93.03883483 943.8046875 35.265625 C925.78764043 21.10325519 902.67141017 19.58398507 880.65820312 20.1875 C877.82687782 20.26501746 874.99603724 20.31240375 872.1640625 20.359375 C855.56286765 20.74308719 839.20916903 22.83228672 822.8046875 25.265625 C821.57524414 25.44609375 820.34580078 25.6265625 819.07910156 25.8125 C805.78498145 27.80893531 792.72959096 30.34938701 779.74609375 33.84765625 C778.79033951 34.10392634 778.79033951 34.10392634 777.8152771 34.36537361 C763.1506297 38.31063975 748.71780678 42.92485443 734.3046875 47.703125 C732.98976071 48.13653163 731.67474687 48.56967423 730.35964966 49.00256348 C698.78838071 59.4036647 667.62433857 70.81182729 636.8046875 83.265625 C639.63736028 85.15407352 642.12823407 86.27897462 645.28125 87.5234375 C646.41071045 87.97605957 647.5401709 88.42868164 648.70385742 88.89501953 C649.30942474 89.13754456 649.91499207 89.38006958 650.53890991 89.62994385 C674.34095367 99.20577455 697.65200789 110.30428222 719.8046875 123.265625 C717.65811336 122.66409569 715.51246797 122.05925186 713.3671875 121.453125 C712.17222656 121.11667969 710.97726562 120.78023438 709.74609375 120.43359375 C706.97515651 119.63964598 704.27353265 118.72468933 701.55859375 117.7578125 C696.20154599 115.95117344 690.75154263 115.08460989 685.1796875 114.203125 C678.91752541 113.19583924 672.87459648 112.11099934 666.8046875 110.265625 C661.16044745 108.98436576 655.67065424 108.23738984 649.88671875 108.05078125 C641.87695666 107.465269 634.97704015 104.72587804 627.6171875 101.765625 C619.36501773 98.47382654 611.77379278 95.63009394 602.8046875 95.265625 C597.77748152 94.65531339 593.43067068 93.15361285 588.7421875 91.328125 C588.04802734 91.06322266 587.35386719 90.79832031 586.63867188 90.52539062 C583.87015369 89.46583428 581.11151011 88.39219548 578.37109375 87.26171875 C570.31515037 84.13498274 562.19469418 82.10523491 553.7421875 80.328125 C552.51282471 80.06797607 551.28346191 79.80782715 550.0168457 79.53979492 C538.33103445 77.10478047 526.61033814 75.02536163 514.8046875 73.265625 C513.86351074 73.12527832 512.92233398 72.98493164 511.95263672 72.84033203 C486.84298553 69.17427978 461.80239838 67.87847943 436.44188309 67.94756699 C434.33119887 67.95322141 432.22052273 67.9560331 430.10983276 67.95864868 C408.8837194 67.9968549 387.87493903 68.49484539 366.8046875 71.265625 C366.12883606 71.35283813 365.45298462 71.44005127 364.75665283 71.52990723 C321.28877277 77.1571689 278.02055187 87.05980289 237.1796875 103.140625 C227.80189101 106.81796383 218.87361269 108.81905813 208.89648438 109.97338867 C205.96504837 110.38292753 203.11250729 111.04404448 200.23120117 111.71459961 C197.56376197 112.32033563 194.88756494 112.85374408 192.203125 113.37890625 C181.97125308 115.40419269 172.06308773 117.54369185 162.23046875 121.0625 C156.50271289 123.07407218 150.65532625 124.65196655 144.8046875 126.265625 C170.86882276 110.38335276 198.23051141 97.00569445 226.8046875 86.265625 C226.8046875 85.605625 226.8046875 84.945625 226.8046875 84.265625 C214.35534635 79.56526352 201.89650452 74.89072851 189.42730713 70.24328613 C187.77114268 69.62590053 186.1151538 69.00804356 184.45941162 68.38952637 C155.20835202 57.46559732 125.58247486 47.65141477 95.8046875 38.265625 C95.00095703 38.01149841 94.19722656 37.75737183 93.36914062 37.49554443 C71.82734157 30.71699196 49.71598587 27.28841061 27.4453125 23.83203125 C26.05803452 23.61549141 26.05803452 23.61549141 24.64273071 23.39457703 C-9.72241593 18.16440083 -61.39113089 12.11998885 -88.1953125 39.265625 Z M211.8046875 956.265625 C211.40378906 957.08804688 211.00289062 957.91046875 210.58984375 958.7578125 C206.10433771 967.56608514 200.85072877 974.44057824 193.6640625 981.3125 C191.89966146 983.16586244 190.87920648 984.68369036 189.7421875 986.953125 C187.19392291 991.74005194 184.27468804 996.23445773 181.3046875 1000.765625 C177.56622129 1006.48868622 173.98401548 1012.2092291 170.8046875 1018.265625 C164.97854609 1029.13597832 164.97854609 1029.13597832 162.4296875 1032.765625 C160.53219332 1035.18789429 160.53219332 1035.18789429 160.8046875 1038.265625 C159.46083984 1038.41064453 159.46083984 1038.41064453 158.08984375 1038.55859375 C152.801076 1041.30674061 152.05913058 1046.13544167 150.2421875 1051.578125 C149.85506592 1052.67084717 149.46794434 1053.76356934 149.0690918 1054.8894043 C148.30435097 1057.04811529 147.54831035 1059.20993164 146.80175781 1061.375 C144.2619992 1068.7380612 141.68697664 1075.899157 137.7421875 1082.640625 C134.6495114 1088.06069766 133.27070716 1093.52738573 131.8046875 1099.5625 C130.62481437 1103.9317177 128.96751734 1107.90496196 127.05078125 1111.99609375 C125.95199748 1114.87910947 125.22162139 1117.574949 124.51953125 1120.5703125 C123.33194 1125.47460372 121.86536697 1130.22513926 120.1875 1134.98046875 C119.9366716 1135.69179459 119.6858432 1136.40312042 119.42741394 1137.13600159 C118.88415651 1138.67306598 118.3403567 1140.20993876 117.79608154 1141.74664307 C108.08310671 1169.28578347 99.85144117 1197.29456416 91.43501282 1225.24884033 C88.2902303 1235.68909063 85.07933891 1246.1076773 81.83572388 1256.51760864 C61.78147675 1321.00378847 45.92925041 1386.97905862 36.65258789 1453.90307617 C35.90868342 1459.16162908 35.90868342 1459.16162908 34.8046875 1460.265625 C27.73863897 1529.69102213 35.63560802 1609.08432547 79.8671875 1665.578125 C84.0213788 1670.61832089 88.36056624 1675.48025872 92.8046875 1680.265625 C93.3821875 1680.90886719 93.9596875 1681.55210937 94.5546875 1682.21484375 C125.357278 1715.01135194 172.44292038 1728.94204785 216.19140625 1731.17578125 C217.38378906 1731.20542969 218.57617188 1731.23507812 219.8046875 1731.265625 C220.61760254 1731.28608887 221.43051758 1731.30655273 222.26806641 1731.32763672 C280.22948219 1732.57578253 332.43947923 1713.91333678 375.8046875 1675.265625 C376.59963623 1674.56324707 376.59963623 1674.56324707 377.41064453 1673.84667969 C383.62694878 1668.33818175 389.59322604 1662.75689227 394.8046875 1656.265625 C395.57296875 1655.32332031 396.34125 1654.38101563 397.1328125 1653.41015625 C403.49370624 1645.4664412 408.77193439 1637.09862026 413.8046875 1628.265625 C414.50464844 1627.15960937 414.50464844 1627.15960937 415.21875 1626.03125 C417.77963363 1621.72012216 418.0295157 1618.08888003 418.2421875 1613.078125 C418.46745364 1608.87465877 418.60712711 1606.63349607 420.6171875 1602.890625 C425.63057613 1600.33477981 430.30533929 1600.37568898 435.8046875 1601.265625 C438.9921875 1602.953125 438.9921875 1602.953125 440.8046875 1606.265625 C440.96910469 1608.19894441 441.06424623 1610.13854923 441.1171875 1612.078125 C441.68453994 1625.64858198 450.90617343 1637.75716715 458.8046875 1648.265625 C459.43246094 1649.11769531 460.06023437 1649.96976563 460.70703125 1650.84765625 C477.19260134 1672.09935156 498.1267122 1688.21000489 520.8046875 1702.265625 C521.805 1702.89984375 522.8053125 1703.5340625 523.8359375 1704.1875 C572.43885852 1733.94996287 633.70900517 1737.25629469 688.18359375 1724.70703125 C731.36421513 1714.03974985 767.97126775 1687.18365354 791.19604492 1649.32641602 C792.40944072 1647.31220286 793.60931833 1645.29057835 794.8046875 1643.265625 C795.15241211 1642.68683594 795.50013672 1642.10804688 795.85839844 1641.51171875 C818.66895142 1603.14548134 825.11634635 1556.78695129 826.4921875 1512.953125 C826.51728394 1512.18483368 826.54238037 1511.41654236 826.5682373 1510.62496948 C826.63778119 1508.40506339 826.69761498 1506.1851217 826.75390625 1503.96484375 C826.78830811 1502.67408936 826.82270996 1501.38333496 826.8581543 1500.0534668 C826.80129304 1496.02514564 826.34329397 1492.25538851 825.8046875 1488.265625 C825.73791781 1486.89440361 825.69578755 1485.52127927 825.69921875 1484.1484375 C824.56537202 1402.47631468 797.09304381 1317.67546993 772.97294617 1240.4654541 C768.85380941 1227.25767058 764.86714093 1214.00987094 760.8671875 1200.765625 C753.84040225 1177.47195038 753.84040225 1177.47195038 746.31469727 1154.3359375 C744.21941311 1148.03002668 742.87731884 1141.81774404 741.8046875 1135.265625 C740.61532078 1128.31265858 738.82006968 1121.95657215 736.2421875 1115.390625 C735.89502686 1114.49077881 735.54786621 1113.59093262 735.19018555 1112.66381836 C732.69558783 1106.29206811 729.96612756 1100.04829084 727.1171875 1093.828125 C722.34500272 1083.40807877 718.03356282 1073.22727851 716.2734375 1061.8203125 C715.54059897 1057.8263425 714.21227489 1054.06611094 712.8046875 1050.265625 C712.1446875 1050.265625 711.4846875 1050.265625 710.8046875 1050.265625 C710.4746875 1047.625625 710.1446875 1044.985625 709.8046875 1042.265625 C709.1446875 1042.265625 708.4846875 1042.265625 707.8046875 1042.265625 C707.58425781 1041.04939453 707.58425781 1041.04939453 707.359375 1039.80859375 C705.70210569 1031.62701711 703.06056031 1025.38656252 698.8046875 1018.265625 C698.1085864 1017.01823338 697.41747483 1015.76804875 696.73046875 1014.515625 C690.76766746 1003.66577874 684.59136846 992.92378292 676.8046875 983.265625 C676.3715625 982.46125 675.9384375 981.656875 675.4921875 980.828125 C673.9044134 978.41706062 672.64481784 977.22331555 670.4296875 975.453125 C666.52480509 972.27781722 664.25479756 968.60345219 661.8046875 964.265625 C655.85227205 966.23170347 649.92572665 968.26144598 644.01171875 970.33984375 C601.80318599 985.08619776 559.16752883 995.58768805 514.8046875 1001.265625 C513.55026855 1001.43078613 512.29584961 1001.59594727 511.00341797 1001.76611328 C468.02736794 1007.15553623 421.74427577 1006.71076641 378.8046875 1001.265625 C378.11763733 1001.18076843 377.43058716 1001.09591187 376.72271729 1001.00848389 C323.54107464 994.43423703 271.70276389 980.87159433 222.22851562 960.25732422 C218.78180585 958.84711722 215.30013366 957.54975018 211.8046875 956.265625 Z " fill="#BEBEBE" transform="translate(363.1953125,311.734375)"/>
<path d="M0 0 C3.03271712 1.73557344 6.05938892 3.47972349 9.07543945 5.24414062 C10.1137793 5.83195312 11.15211914 6.41976563 12.22192383 7.02539062 C19.41774895 11.21205251 25.39485128 15.98611537 31.38793945 21.74414062 C32.44481723 22.71358702 33.50421656 23.68030203 34.56762695 24.64257812 C35.96909101 25.93030017 37.37049967 27.21808279 38.77124023 28.5065918 C41.28039241 30.81354557 43.79554426 33.11217741 46.32543945 35.39648438 C68.26208376 55.26198274 68.26208376 55.26198274 75.2668457 66.54492188 C77.89937703 70.51553542 80.85403751 74.13854533 83.88793945 77.80664062 C88.29137009 83.13578891 92.48375279 88.53353834 96.49731445 94.16601562 C100.54207865 99.68160317 104.99744879 104.88584357 109.3840332 110.13085938 C113.94180334 115.67905039 117.97864704 121.46510183 121.88769531 127.47949219 C124.91089275 132.11886435 127.78456521 136.49707177 132.20043945 139.93164062 C137.74538808 144.3984048 141.43715496 150.85079533 144.76293945 157.05664062 C146.85003454 160.94248214 149.24283965 164.56698376 151.76293945 168.18164062 C152.15320312 168.74157715 152.5434668 169.30151367 152.94555664 169.87841797 C154.6962398 172.37513914 156.46815414 174.85286136 158.27856445 177.30664062 C162.38777609 182.93366917 165.54609132 188.77434706 168.5168457 195.05664062 C169.92370399 197.95146033 171.54119297 200.65677787 173.2355957 203.39257812 C176.74539734 209.16752447 179.49827558 215.21108869 182.26293945 221.36914062 C183.3251173 223.69670544 184.38891343 226.02353246 185.4543457 228.34960938 C185.96239746 229.45997559 186.47044922 230.5703418 186.99389648 231.71435547 C192.6992135 244.11417756 199.23683929 256.01685114 205.93408203 267.90405273 C209.96985911 275.08679701 213.7541582 282.3509065 217.38793945 289.74414062 C218.09836905 291.12981781 218.80924779 292.51526489 219.52075195 293.90039062 C221.69138847 298.24614381 223.48483145 302.72634426 225.26293945 307.24414062 C225.61171143 308.12577881 225.9604834 309.00741699 226.31982422 309.91577148 C227.34775584 312.52321354 228.36883663 315.13323733 229.38793945 317.74414062 C229.65364746 318.41977051 229.91935547 319.09540039 230.19311523 319.79150391 C232.0049574 324.41503426 233.71287406 329.06993772 235.38793945 333.74414062 C235.72970215 334.68547852 236.07146484 335.62681641 236.42358398 336.59667969 C250.69056379 376.23199745 260.1803716 422.28526593 241.7902832 462.21289062 C227.92726932 489.24418876 201.70775589 507.30630331 173.38793945 516.74414062 C162.96413163 520.01828539 152.40926682 522.76621928 141.63793945 524.61914062 C140.94853271 524.73926514 140.25912598 524.85938965 139.54882812 524.9831543 C134.15269386 525.82632065 128.84110917 525.8578068 123.38793945 525.74414062 C123.30866211 524.98012939 123.22938477 524.21611816 123.14770508 523.42895508 C115.59788966 452.49301673 98.1256775 382.75806921 77.63867188 314.55786133 C74.63462755 304.54186391 71.72247649 294.51325036 69.05981445 284.40039062 C68.81675568 283.4846376 68.5736969 282.56888458 68.32327271 281.62538147 C66.74147245 275.5191513 65.54957135 269.40154848 64.51293945 263.18164062 C63.20343278 255.75753179 61.18697112 249.01807315 58.45043945 241.99414062 C54.19071297 231.05274009 52.01663196 220.03699804 49.9128418 208.51757812 C48.71259003 202.17578272 47.11915065 195.96133703 45.38793945 189.74414062 C45.19683594 189.05320312 45.00573242 188.36226562 44.80883789 187.65039062 C40.93410593 173.89539919 35.41937402 160.91198781 29.71728516 147.828125 C28.39098896 144.75121527 27.10811563 141.65907457 25.83325195 138.56054688 C23.66252722 133.32708329 21.29727055 128.21592035 18.82543945 123.11914062 C14.20288124 113.50076833 14.20288124 113.50076833 12.45043945 108.74414062 C9.56412365 101.18411163 5.42770376 94.12863751 1.60131836 87.01513672 C0.53702797 85.02317912 -0.50648241 83.02280637 -1.5378418 81.01367188 C-4.76274623 74.80851093 -8.31347879 69.24642989 -12.52612305 63.66992188 C-14.85524082 60.40305069 -16.85430737 57.02559693 -18.86206055 53.55664062 C-25.62112271 42.00039415 -33.72113676 31.34166625 -42.9675293 21.66210938 C-44.61206055 19.74414062 -44.61206055 19.74414062 -45.61206055 16.74414062 C-44.71229492 16.29425781 -43.8125293 15.844375 -42.88549805 15.38085938 C-41.97151245 14.9234436 -41.97151245 14.9234436 -41.0390625 14.45678711 C-39.65048306 13.76307562 -38.26096864 13.07123303 -36.87060547 12.38110352 C-32.49908334 10.20693989 -28.15403016 7.98988493 -23.8269043 5.72851562 C-22.84866699 5.22360596 -21.87042969 4.71869629 -20.86254883 4.19848633 C-18.9241537 3.19771776 -16.9913489 2.18603625 -15.06469727 1.1628418 C-14.16895996 0.70369385 -13.27322266 0.2445459 -12.3503418 -0.22851562 C-11.55668213 -0.64367432 -10.76302246 -1.05883301 -9.9453125 -1.48657227 C-6.09132521 -2.7572549 -3.56620082 -1.71460295 0 0 Z " fill="#FEFEFE" transform="translate(1084.612060546875,1253.255859375)"/>
<path d="M0 0 C2.8489382 0.7718136 5.06713225 1.83549481 7.64013672 3.27587891 C8.57148437 3.79150391 9.50283203 4.30712891 10.46240234 4.83837891 C11.4246875 5.37978516 12.38697266 5.92119141 13.37841797 6.47900391 C20.40654131 10.39899615 27.45857693 14.19718275 34.69091797 17.72900391 C33.83145532 21.89753774 31.73035335 24.63546962 29.12841797 27.91650391 C28.67587646 28.49746826 28.22333496 29.07843262 27.75708008 29.67700195 C25.20648786 32.92014801 22.56538472 36.01951475 19.75341797 39.04150391 C11.50144781 48.14196293 5.05537909 58.87308738 -1.11010742 69.45214844 C-3.25325779 73.09536051 -5.55035212 76.41146583 -8.18408203 79.72900391 C-14.19303245 87.72090796 -17.93317912 97.11757095 -22.10498047 106.15087891 C-23.52571815 109.19284767 -25.02496769 112.18031343 -26.55908203 115.16650391 C-29.15704729 120.29524568 -31.43756258 125.53799251 -33.70678711 130.81762695 C-35.42213922 134.7839363 -37.24812827 138.6445723 -39.24658203 142.47900391 C-43.08045499 149.99380276 -46.03283174 157.86028313 -49.09985352 165.70922852 C-50.02111428 168.00986941 -50.96318626 170.29588244 -51.92651367 172.57885742 C-55.74272546 181.6445584 -59.13710554 190.74949198 -62.16430664 200.10717773 C-63.42749445 204.00836562 -64.71402727 207.90184615 -66.00048828 211.79541016 C-66.26842194 212.60708649 -66.53635559 213.41876282 -66.81240845 214.2550354 C-69.58119974 222.60934749 -72.49356168 230.91169939 -75.4211731 239.21142578 C-96.43479846 298.79348587 -115.23283652 359.09964722 -129.30908203 420.72900391 C-129.49279358 421.53090149 -129.67650513 422.33279907 -129.86578369 423.15899658 C-137.76145033 457.71305916 -145.10010384 492.82071285 -148.47460938 528.14526367 C-148.69243298 530.34665101 -148.99012271 532.53998168 -149.30908203 534.72900391 C-159.87420817 540.01156698 -184.80683621 530.21526975 -195.79443359 526.58837891 C-215.62124955 519.81261268 -232.86474673 511.01016751 -248.30908203 496.72900391 C-249.4634375 495.6790625 -249.4634375 495.6790625 -250.64111328 494.60791016 C-259.99324412 485.72070361 -266.27595759 474.51486751 -271.30908203 462.72900391 C-271.84734619 461.50274292 -271.84734619 461.50274292 -272.39648438 460.25170898 C-273.74346176 455.05226096 -273.61418589 449.98161005 -273.60986328 444.63134766 C-273.61414841 443.44666397 -273.61843353 442.26198029 -273.62284851 441.04139709 C-273.62858773 438.528988 -273.62909509 436.01656229 -273.62475586 433.50415039 C-273.62163603 429.73179123 -273.64492024 425.96024823 -273.67041016 422.18798828 C-273.75378529 391.28016324 -267.02085907 367.87239297 -254.85986328 339.68994141 C-252.88338616 335.1072219 -251.00208341 330.49542433 -249.16479492 325.85546875 C-248.14338874 323.31725252 -247.03049511 320.83223326 -245.87158203 318.35400391 C-244.18628448 314.71549318 -242.6263132 311.05460061 -241.14111328 307.33056641 C-238.30951618 300.50472274 -234.93962106 294.01902975 -231.49420166 287.48986816 C-224.56163399 274.42819858 -224.56163399 274.42819858 -218.43408203 260.97900391 C-214.63832518 251.92454224 -209.99880796 243.34697021 -205.30908203 234.72900391 C-204.92461914 234.01679687 -204.54015625 233.30458984 -204.14404297 232.57080078 C-199.84549394 224.63099605 -195.27287699 216.99192768 -190.19116211 209.52856445 C-185.8495397 203.13087071 -181.85167902 196.53535337 -177.85205078 189.92041016 C-173.86134576 183.32460842 -169.78688213 176.8457859 -165.31298828 170.56494141 C-163.85481049 168.50132138 -162.43059229 166.42854589 -161.02392578 164.33056641 C-157.04914406 158.48229015 -153.24303537 153.40422418 -147.80908203 148.79150391 C-141.64617956 143.50653254 -137.73815998 137.3156636 -133.45263672 130.51708984 C-129.46805447 124.28671401 -125.0795338 118.46755771 -120.05908203 113.04150391 C-115.65712634 108.26957252 -111.81921583 103.19051653 -107.97119141 97.97338867 C-103.96343864 92.55289036 -99.77480201 87.30674732 -95.51318359 82.0847168 C-92.63290956 78.51443583 -90.12320673 74.91272754 -87.74658203 70.97900391 C-80.17165303 59.20823686 -68.73922479 49.47917468 -58.19873047 40.39331055 C-56.32555735 38.74351453 -54.52683912 37.04068269 -52.73876953 35.29931641 C-41.79747571 24.65352739 -30.28458238 17.25926515 -16.94287109 9.98413086 C-12.25672445 7.39038442 -8.16617851 4.47787033 -4.20361328 0.84619141 C-2.30908203 -0.27099609 -2.30908203 -0.27099609 0 0 Z " fill="#FEFEFE" transform="translate(527.30908203125,1244.27099609375)"/>
<path d="M0 0 C17.86294858 10.21646437 27.16892019 27.54726678 32.94921875 46.7578125 C33.24711304 47.73439819 33.24711304 47.73439819 33.55102539 48.73071289 C36.86553316 60.3350388 37.5765535 71.99295689 37.51171875 84.0078125 C37.50989594 84.71091553 37.50807312 85.41401855 37.50619507 86.13842773 C37.45975423 96.78926268 36.94552043 106.91230656 34.19921875 117.2578125 C34.0276123 117.91555664 33.85600586 118.57330078 33.67919922 119.25097656 C30.95590328 129.44812578 26.90022484 138.82870519 22.19921875 148.2578125 C21.53921875 148.2578125 20.87921875 148.2578125 20.19921875 148.2578125 C20.13605469 148.96035156 20.07289063 149.66289063 20.0078125 150.38671875 C18.95513319 154.12449311 16.86527111 156.43173092 14.26171875 159.1953125 C13.52671143 159.98591064 13.52671143 159.98591064 12.77685547 160.79248047 C4.79114463 169.09135644 -4.29895965 173.47381183 -15.75 174.21484375 C-26.44989182 174.36554645 -35.77130429 169.42084686 -43.48828125 162.1953125 C-64.57577141 139.67688551 -68.63251427 107.90502011 -67.93701172 78.44335938 C-67.35412146 64.81333763 -64.29158323 52.07530982 -59.80078125 39.2578125 C-59.21296875 37.41896484 -59.21296875 37.41896484 -58.61328125 35.54296875 C-53.73948309 20.77728419 -45.57575958 7.90454064 -31.36328125 0.6953125 C-21.39904724 -3.89057356 -10.13059521 -4.78900865 0 0 Z " fill="#BCBCBC" transform="translate(516.80078125,735.7421875)"/>
<path d="M0 0 C20.5276406 11.97210401 27.16251228 32.93186476 33.015625 54.67578125 C35.40112741 65.34399376 36.20380525 75.99861787 36.15234375 86.90625 C36.1467041 88.17186768 36.14106445 89.43748535 36.13525391 90.74145508 C35.81759857 115.37861418 29.73145003 142.32638941 12.05859375 160.57421875 C2.80750792 169.25525528 -6.27148784 173.79428125 -19.16015625 173.65625 C-30.91908061 172.60601114 -40.56978078 165.26737343 -48 156.48046875 C-67.72249516 129.87075306 -72.82468594 94.30883519 -68.33789062 62.09228516 C-67.75044293 58.57623793 -67.01709451 55.11605388 -66.16015625 51.65625 C-65.91072266 50.64546387 -65.91072266 50.64546387 -65.65625 49.61425781 C-62.01343732 35.49498571 -55.98858773 21.57169695 -46.16015625 10.65625 C-45.64195313 10.03492188 -45.12375 9.41359375 -44.58984375 8.7734375 C-33.37140963 -3.74568464 -14.99418546 -7.24551244 0 0 Z " fill="#BCBCBC" transform="translate(1091.16015625,736.34375)"/>
<path d="M0 0 C0.74741959 -0.00428513 1.49483917 -0.00857025 2.26490784 -0.01298523 C3.84057614 -0.01869258 5.41627076 -0.01925553 6.99194336 -0.01489258 C9.34212222 -0.01176766 11.69099502 -0.03511322 14.04101562 -0.06054688 C24.66040047 -0.10438917 34.55068991 1.20229216 44.94140625 3.30078125 C47.09993415 3.68101122 49.26036626 4.04648622 51.42259216 4.4050293 C68.82860451 7.37008877 79.99942756 15.37049106 90.6796875 29.2109375 C94.87373431 36.1577333 95.0734588 44.63022711 93.51171875 52.453125 C90.09367514 61.75779926 80.48451785 67.30105016 72.0234375 71.39599609 C59.53950309 76.8211205 46.39534315 78.20019525 32.94140625 78.30078125 C31.74596191 78.31447754 30.55051758 78.32817383 29.31884766 78.34228516 C19.19172885 78.45049881 9.06833445 78.4066771 -1.05859375 78.30078125 C-2.11210022 78.29141541 -2.11210022 78.29141541 -3.18688965 78.28186035 C-27.28553944 78.06082349 -50.79560032 77.3947141 -69.125 59.546875 C-73.89199832 54.00945271 -74.67470482 48.26603036 -74.37890625 41.078125 C-72.94916381 28.6812119 -63.80218608 19.82390748 -54.51171875 12.21484375 C-44.34309619 5.49263353 -31.68874416 3.98668355 -19.8125 2.79296875 C-16.0287696 2.38220467 -16.0287696 2.38220467 -12.32763672 1.28881836 C-8.21799073 0.24245039 -4.22922848 -0.00556344 0 0 Z " fill="#BDBDBD" transform="translate(778.05859375,1007.69921875)"/>
<path d="M0 0 C2.81924848 -0.00217367 5.63809644 -0.02034631 8.45727539 -0.03930664 C47.16295755 -0.16144271 47.16295755 -0.16144271 60.78735352 10.18530273 C62.72476752 12.27857725 64.4177715 14.50931725 66.09985352 16.81030273 C66.54135742 17.39553711 66.98286133 17.98077148 67.43774414 18.58374023 C70.77644159 23.04215398 72.46888226 25.5058965 71.78735352 31.18530273 C63.77803136 40.22808581 44.39760912 41.70027578 33.12524414 42.41870117 C24.80342318 42.73877121 16.48533984 42.75939741 8.15844727 42.70678711 C4.51785822 42.68399782 0.8784393 42.69753913 -2.76210976 42.72056484 C-48.71517401 42.96656643 -48.71517401 42.96656643 -62.98608398 32.93920898 C-64.87521063 30.2378782 -64.64293172 28.40845792 -64.21264648 25.18530273 C-62.60327148 22.36889648 -62.60327148 22.36889648 -60.46264648 19.62280273 C-59.76655273 18.71401367 -59.07045898 17.80522461 -58.35327148 16.86889648 C-57.64686523 15.98331055 -56.94045898 15.09772461 -56.21264648 14.18530273 C-55.54491211 13.30229492 -54.87717773 12.41928711 -54.18920898 11.50952148 C-46.47578752 2.4393915 -32.89225561 1.32120439 -21.72436523 0.37719727 C-14.48868757 -0.01818946 -7.24478302 -0.00062289 0 0 Z " fill="#FAFAFA" transform="translate(784.212646484375,1022.814697265625)"/>
<path d="M0 0 C3.0625 2 3.0625 2 5 5 C5.81397984 8.91974757 5.37168052 12.03800337 3.9375 15.75 C-0.48727018 20.88844279 -6.22777259 22.52244149 -12.54296875 24.29296875 C-15.31507335 25.09066498 -17.99321901 26.08298956 -20.68359375 27.12109375 C-23.71147855 28.26995392 -26.76139713 29.35185186 -29.8125 30.4375 C-37.3268838 33.11439994 -44.82768875 35.82460203 -52.30859375 38.59375 C-61.58305327 42.02494629 -70.87624378 45.38919309 -80.20703125 48.6640625 C-84.23675871 50.07950801 -88.25047168 51.53697067 -92.26171875 53.00390625 C-95.50298975 54.1829706 -98.75115884 55.34196236 -102 56.5 C-106.17145052 57.98721279 -110.33943138 59.48261615 -114.5 61 C-118.66056862 62.51738385 -122.82854948 64.01278721 -127 65.5 C-133.00886458 67.64274669 -139.00722336 69.81272544 -145 72 C-152.1361473 74.60458789 -159.28331047 77.17353931 -166.44921875 79.6953125 C-168.78462151 80.55342528 -171.10154259 81.46394084 -173.39453125 82.4296875 C-181.27206193 85.73768971 -188.31490823 87.92813156 -196.68359375 85.08984375 C-198.85147581 84.14625702 -200.93195702 83.14380649 -203 82 C-200.50509343 74.74208999 -196.98252028 68.55713297 -190 65 C-187.52117758 64.15011803 -185.03274021 63.41188758 -182.5078125 62.7109375 C-177.36595606 61.25327726 -172.45109224 59.18444054 -167.5 57.1875 C-157.06175704 53.00258232 -146.60401806 49.08528768 -135.82421875 45.86328125 C-131.4271025 44.51921114 -127.16905257 42.90275069 -122.92578125 41.13671875 C-116.55007547 38.50633419 -110.06901401 36.31078726 -103.50830078 34.1940918 C-98.88530638 32.68821565 -94.45870494 30.95227218 -90 29 C-87.47072784 27.9874156 -84.92555439 27.02005782 -82.375 26.0625 C-81.33230957 25.67010132 -81.33230957 25.67010132 -80.26855469 25.26977539 C-75.96774652 23.67245878 -71.6506918 22.24180143 -67.25 20.9375 C-62.00118195 19.37966114 -57.07281008 17.39501468 -52.05078125 15.2265625 C-47.81647684 13.5241661 -43.48992666 12.24806518 -39.10546875 10.9921875 C-36.2990446 10.09554381 -33.65216143 9.01835395 -30.95727539 7.83398438 C-27.06916015 6.17727966 -23.09887912 4.74801138 -19.125 3.3125 C-18.27808594 2.99216797 -17.43117188 2.67183594 -16.55859375 2.34179688 C-11.07086848 0.37109002 -5.85221165 -0.95431928 0 0 Z " fill="#B4B4B4" transform="translate(1148,607)"/>
<path d="M0 0 C1.69535497 0.6992831 3.38941251 1.403539 5.05908203 2.16210938 C8.61425603 3.69687128 12.31711604 4.81356758 16 6 C21.47090393 7.76243885 26.71286292 9.73155236 32 12 C34.96085317 13.05690692 37.94691451 14.03089888 40.9375 15 C48.93771017 17.60566642 56.77353448 20.50603784 64.59643555 23.60058594 C70.91842536 26.09605475 77.17918813 28.56136787 83.76171875 30.296875 C86.30449472 31.09565279 88.69781323 32.15688148 91.13745117 33.22412109 C94.13751661 34.47385342 97.2204719 35.44165146 100.3125 36.4375 C104.59607981 37.83459312 108.8346158 39.27663334 113 41 C117.10544203 42.69691604 121.2794544 44.12100985 125.5 45.5 C130.52895218 47.14312299 135.44365568 48.94235 140.33203125 50.96484375 C144.94947302 52.75638412 149.6738008 54.23601821 154.38671875 55.75390625 C158 57 158 57 161.48828125 58.50390625 C165.1105805 60.04711049 168.73844252 61.21699987 172.5 62.375 C182.337664 65.59330949 186.75137809 68.76806576 191.93359375 77.79296875 C193 80 193 80 193 82 C182.63135419 87.37633486 174.94276136 86.43108518 164 83 C162.29972983 82.27217208 160.59981996 81.54330961 158.90795898 80.79614258 C155.36758037 79.31883296 151.70980368 78.18191107 148.0625 77 C142.31950401 75.12950767 136.6435896 73.15185559 131 71 C129.29291617 70.37159523 127.5847136 69.74621427 125.875 69.125 C124.94558594 68.78726563 124.01617188 68.44953125 123.05859375 68.1015625 C119.68940065 66.88813663 116.31330138 65.69490907 112.9375 64.5 C109.00282736 63.10053265 105.10716416 61.66245966 101.25 60.0625 C95.79130565 57.83187075 90.19803165 56.02157681 84.59472656 54.19360352 C79.67835173 52.58516655 74.83377377 50.84053214 70 49 C68.23036607 48.35088742 66.4596655 47.70466884 64.6875 47.0625 C61.01964139 45.73239743 57.35292226 44.39930106 53.6875 43.0625 C49.46382637 41.52607093 45.23333613 40.00959751 41 38.5 C24.0617432 32.45326422 24.0617432 32.45326422 18.4375 30.125 C15.21299761 28.8051796 11.96938867 27.64968178 8.65234375 26.58984375 C7.86738525 26.3376709 7.08242676 26.08549805 6.27368164 25.82568359 C4.71736407 25.33051324 3.15806386 24.84458581 1.59545898 24.36962891 C-4.87066662 22.31084058 -11.14260898 19.78608653 -15 14 C-15.82418418 9.36721733 -15.59554955 5.97273093 -13.125 1.9375 C-8.7626442 -0.7671606 -5.00946862 -0.87121193 0 0 Z " fill="#B4B4B4" transform="translate(502,607)"/>
<path d="M0 0 C0 3 0 3 -1.3293457 4.66992188 C-1.93866943 5.26353516 -2.54799316 5.85714844 -3.17578125 6.46875 C-3.83900391 7.12230469 -4.50222656 7.77585937 -5.18554688 8.44921875 C-5.88744141 9.12597656 -6.58933594 9.80273438 -7.3125 10.5 C-8.00279297 11.17675781 -8.69308594 11.85351562 -9.40429688 12.55078125 C-10.69366187 13.81398522 -11.98607887 15.07408666 -13.2824707 16.33007812 C-14.86933055 17.87295251 -16.43903823 19.43097819 -18 21 C-16.49965766 16.0544271 -13.60548587 13.03076214 -10.125 9.375 C-9.33029297 8.51648437 -9.33029297 8.51648437 -8.51953125 7.640625 C-5.85147413 4.79381467 -3.24155754 2.20801746 0 0 Z " fill="#C9C9C9" transform="translate(725,1019)"/>
<path d="M0 0 C0.66 0 1.32 0 2 0 C2.83719383 2.29032311 3.6698929 4.58210957 4.5 6.875 C4.85771484 7.85146484 4.85771484 7.85146484 5.22265625 8.84765625 C7 13.7734375 7 13.7734375 7 16 C6.34 16 5.68 16 5 16 C4.67 13.36 4.34 10.72 4 8 C3.34 8 2.68 8 2 8 C0.74335022 5.09399739 0 3.20395416 0 0 Z " fill="#D3D3D3" transform="translate(1069,1346)"/>
<path d="M0 0 C3.64991166 1.31802365 5.7895201 2.59214008 9 5 C5.7 4.34 2.4 3.68 -1 3 C-0.67 2.01 -0.34 1.02 0 0 Z " fill="#D2D2D2" transform="translate(1076,431)"/>
</svg>
