<?xml version="1.0" encoding="UTF-8"?>
<!DOCTYPE svg PUBLIC "-//W3C//DTD SVG 1.1//EN" "http://www.w3.org/Graphics/SVG/1.1/DTD/svg11.dtd">
<svg xmlns="http://www.w3.org/2000/svg" version="1.1" width="500px" height="500px" style="shape-rendering:geometricPrecision; text-rendering:geometricPrecision; image-rendering:optimizeQuality; fill-rule:evenodd; clip-rule:evenodd" xmlns:xlink="http://www.w3.org/1999/xlink">
<g><path style="opacity:0.904" fill="#bc7d56" d="M 80.5,-0.5 C 81.1667,-0.5 81.8333,-0.5 82.5,-0.5C 82.5,59.1667 82.5,118.833 82.5,178.5C 81.5489,177.081 81.2155,175.415 81.5,173.5C 81.5,168.833 81.5,164.167 81.5,159.5C 81.5,158.833 81.5,158.167 81.5,157.5C 81.8245,104.791 81.4912,52.1247 80.5,-0.5 Z"/></g>
<g><path style="opacity:1" fill="#c87b48" d="M 82.5,-0.5 C 89.8333,-0.5 97.1667,-0.5 104.5,-0.5C 104.5,52.5 104.5,105.5 104.5,158.5C 103.513,163.305 103.179,168.305 103.5,173.5C 103.662,175.527 103.495,177.527 103,179.5C 102.617,180.056 102.117,180.389 101.5,180.5C 97.8212,181.338 94.3212,182.671 91,184.5C 88.6257,183.135 86.1257,182.135 83.5,181.5C 82.8902,180.609 82.5569,179.609 82.5,178.5C 82.5,118.833 82.5,59.1667 82.5,-0.5 Z"/></g>
<g><path style="opacity:1" fill="#c67846" d="M 394.5,-0.5 C 401.5,-0.5 408.5,-0.5 415.5,-0.5C 415.736,59.5056 415.402,119.506 414.5,179.5C 411.341,179.57 409.674,181.237 409.5,184.5C 406.696,185.638 403.696,185.805 400.5,185C 399.29,183.961 398.29,182.794 397.5,181.5C 397.539,180.244 397.039,179.244 396,178.5C 394.584,118.846 394.084,59.1792 394.5,-0.5 Z"/></g>
<g><path style="opacity:1" fill="#cc976f" d="M 415.5,-0.5 C 416.167,-0.5 416.833,-0.5 417.5,-0.5C 417.5,52.5 417.5,105.5 417.5,158.5C 416.513,163.305 416.179,168.305 416.5,173.5C 417.017,178.983 414.684,182.649 409.5,184.5C 409.674,181.237 411.341,179.57 414.5,179.5C 415.402,119.506 415.736,59.5056 415.5,-0.5 Z"/></g>
<g><path style="opacity:0.618" fill="#8faa7a" d="M 81.5,157.5 C 81.5,158.167 81.5,158.833 81.5,159.5C 55.1667,159.5 28.8333,159.5 2.5,159.5C 28.7355,158.825 55.0689,158.158 81.5,157.5 Z"/></g>
<g><path style="opacity:0.637" fill="#8ea571" d="M 417.5,158.5 C 444.188,157.842 470.521,158.509 496.5,160.5C 470.241,159.51 443.908,159.176 417.5,159.5C 417.5,164.167 417.5,168.833 417.5,173.5C 417.167,173.5 416.833,173.5 416.5,173.5C 416.179,168.305 416.513,163.305 417.5,158.5 Z"/></g>
<g><path style="opacity:1" fill="#639345" d="M 2.5,159.5 C 28.8333,159.5 55.1667,159.5 81.5,159.5C 81.5,164.167 81.5,168.833 81.5,173.5C 80.6618,173.842 80.3284,174.508 80.5,175.5C 79.8333,176.167 79.1667,176.833 78.5,177.5C 78.5,176.833 78.5,176.167 78.5,175.5C 79.3439,171.901 79.6773,168.234 79.5,164.5C 79.5,163.167 79.5,161.833 79.5,160.5C 54.1667,160.5 28.8333,160.5 3.5,160.5C 3.5,161.833 3.5,163.167 3.5,164.5C 2.50644,173.652 2.17311,182.985 2.5,192.5C 2.5,198.833 2.5,205.167 2.5,211.5C 2.16667,211.5 1.83333,211.5 1.5,211.5C 1.5,196.167 1.5,180.833 1.5,165.5C 1.51715,163.435 1.85048,161.435 2.5,159.5 Z"/></g>
<g><path style="opacity:1" fill="#609345" d="M 393.5,159.5 C 393.5,161.167 393.5,162.833 393.5,164.5C 393.167,164.5 392.833,164.5 392.5,164.5C 392.5,163.167 392.5,161.833 392.5,160.5C 296.833,160.5 201.167,160.5 105.5,160.5C 105.5,161.833 105.5,163.167 105.5,164.5C 105.167,164.5 104.833,164.5 104.5,164.5C 104.5,162.833 104.5,161.167 104.5,159.5C 200.833,159.5 297.167,159.5 393.5,159.5 Z"/></g>
<g><path style="opacity:1" fill="#5b963d" d="M 79.5,164.5 C 54.1667,164.5 28.8333,164.5 3.5,164.5C 3.5,163.167 3.5,161.833 3.5,160.5C 28.8333,160.5 54.1667,160.5 79.5,160.5C 79.5,161.833 79.5,163.167 79.5,164.5 Z"/></g>
<g><path style="opacity:1" fill="#5c963c" d="M 392.5,164.5 C 296.833,164.5 201.167,164.5 105.5,164.5C 105.5,163.167 105.5,161.833 105.5,160.5C 201.167,160.5 296.833,160.5 392.5,160.5C 392.5,161.833 392.5,163.167 392.5,164.5 Z"/></g>
<g><path style="opacity:1" fill="#8e9a5d" d="M 104.5,158.5 C 200.833,158.5 297.167,158.5 393.5,158.5C 393.5,158.833 393.5,159.167 393.5,159.5C 297.167,159.5 200.833,159.5 104.5,159.5C 104.5,161.167 104.5,162.833 104.5,164.5C 104.5,167.5 104.5,170.5 104.5,173.5C 104.167,173.5 103.833,173.5 103.5,173.5C 103.179,168.305 103.513,163.305 104.5,158.5 Z"/></g>
<g><path style="opacity:1" fill="#5f943f" d="M 496.5,160.5 C 496.5,160.833 496.5,161.167 496.5,161.5C 496.5,162.5 496.5,163.5 496.5,164.5C 474.831,164.667 453.164,164.5 431.5,164C 432.416,163.626 433.25,163.126 434,162.5C 454.997,162.817 474.664,163.15 493,163.5C 493.692,162.975 494.192,162.308 494.5,161.5C 469.175,160.5 443.842,160.167 418.5,160.5C 418.5,165.5 418.5,170.5 418.5,175.5C 417.662,175.158 417.328,174.492 417.5,173.5C 417.5,168.833 417.5,164.167 417.5,159.5C 443.908,159.176 470.241,159.51 496.5,160.5 Z"/></g>
<g><path style="opacity:1" fill="#c9a074" d="M 393.5,-0.5 C 393.833,-0.5 394.167,-0.5 394.5,-0.5C 394.084,59.1792 394.584,118.846 396,178.5C 397.039,179.244 397.539,180.244 397.5,181.5C 396.542,181.047 395.708,180.381 395,179.5C 394.809,177.292 394.309,175.292 393.5,173.5C 393.5,170.5 393.5,167.5 393.5,164.5C 393.5,162.833 393.5,161.167 393.5,159.5C 393.5,159.167 393.5,158.833 393.5,158.5C 393.5,105.5 393.5,52.5 393.5,-0.5 Z"/></g>
<g><path style="opacity:1" fill="#5e9a40" d="M 496.5,164.5 C 496.942,168.154 497.276,171.821 497.5,175.5C 471.167,175.5 444.833,175.5 418.5,175.5C 418.5,170.5 418.5,165.5 418.5,160.5C 443.842,160.167 469.175,160.5 494.5,161.5C 494.192,162.308 493.692,162.975 493,163.5C 474.664,163.15 454.997,162.817 434,162.5C 433.25,163.126 432.416,163.626 431.5,164C 453.164,164.5 474.831,164.667 496.5,164.5 Z"/></g>
<g><path style="opacity:1" fill="#7fa76c" d="M 496.5,161.5 C 497.712,164.78 498.712,168.113 499.5,171.5C 499.5,172.833 499.5,174.167 499.5,175.5C 498.833,175.5 498.167,175.5 497.5,175.5C 497.276,171.821 496.942,168.154 496.5,164.5C 496.5,163.5 496.5,162.5 496.5,161.5 Z"/></g>
<g><path style="opacity:1" fill="#80b65e" d="M 78.5,175.5 C 78.5,176.167 78.5,176.833 78.5,177.5C -18.8333,176.833 -18.8333,176.167 78.5,175.5 Z"/></g>
<g><path style="opacity:1" fill="#7db45b" d="M 392.5,175.5 C 392.167,176.167 391.833,176.833 391.5,177.5C 319.497,177.833 247.497,177.5 175.5,176.5C 247.83,175.5 320.164,175.167 392.5,175.5 Z"/></g>
<g><path style="opacity:1" fill="#77af57" d="M 418.5,176.5 C 418.5,176.167 418.5,175.833 418.5,175.5C 444.833,175.5 471.167,175.5 497.5,175.5C 498.167,175.5 498.833,175.5 499.5,175.5C 499.5,176.833 499.5,178.167 499.5,179.5C 473.06,177.523 446.393,176.856 419.5,177.5C 419.5,176.833 419.167,176.5 418.5,176.5 Z"/></g>
<g><path style="opacity:1" fill="#5f9b41" d="M 3.5,164.5 C 28.8333,164.5 54.1667,164.5 79.5,164.5C 79.6773,168.234 79.3439,171.901 78.5,175.5C -18.8333,176.167 -18.8333,176.833 78.5,177.5C 77.7397,182.906 79.0731,187.573 82.5,191.5C 56.0052,192.498 29.3386,192.831 2.5,192.5C 2.17311,182.985 2.50644,173.652 3.5,164.5 Z"/></g>
<g><path style="opacity:1" fill="#5b973d" d="M 104.5,164.5 C 104.833,164.5 105.167,164.5 105.5,164.5C 201.167,164.5 296.833,164.5 392.5,164.5C 392.833,164.5 393.167,164.5 393.5,164.5C 393.5,167.5 393.5,170.5 393.5,173.5C 393.5,174.167 393.5,174.833 393.5,175.5C 393.167,175.5 392.833,175.5 392.5,175.5C 320.164,175.167 247.83,175.5 175.5,176.5C 247.497,177.5 319.497,177.833 391.5,177.5C 390.718,191.221 397.051,197.055 410.5,195C 417.743,191.483 420.743,185.65 419.5,177.5C 446.393,176.856 473.06,177.523 499.5,179.5C 499.5,215.5 499.5,251.5 499.5,287.5C 498.235,288.514 497.569,290.014 497.5,292C 496.304,296.757 495.637,301.59 495.5,306.5C 495.5,306.833 495.5,307.167 495.5,307.5C 493.879,309.23 492.545,311.23 491.5,313.5C 473.155,313.167 454.821,313.5 436.5,314.5C 454.488,315.5 472.488,315.833 490.5,315.5C 490.5,316.833 490.5,318.167 490.5,319.5C 487.004,321.807 485.004,325.14 484.5,329.5C 482.61,329.703 481.11,329.037 480,327.5C 478.648,329.594 478.148,331.927 478.5,334.5C 475.365,334.548 473.698,336.215 473.5,339.5C 472.476,338.147 471.143,337.48 469.5,337.5C 469.5,336.5 469.5,335.5 469.5,334.5C 468.5,334.5 467.5,334.5 466.5,334.5C 466.33,335.822 466.663,336.989 467.5,338C 466.675,339.688 465.675,339.855 464.5,338.5C 463.49,340.935 462.657,343.269 462,345.5C 464.481,343.542 467.147,341.875 470,340.5C 470.167,341 470.333,341.5 470.5,342C 468.713,345.842 465.88,347.342 462,346.5C 460.941,346.63 460.108,347.13 459.5,348C 461.437,348.122 462.77,348.955 463.5,350.5C 462.101,351.89 460.434,352.89 458.5,353.5C 450.692,356.193 443.026,359.026 435.5,362C 432.833,362.333 430.167,362.667 427.5,363C 307.5,363.5 187.5,363.667 67.5,363.5C 66.8333,363.5 66.1667,363.5 65.5,363.5C 65.0472,362.542 64.3805,361.708 63.5,361C 58.3294,360.405 53.3294,359.239 48.5,357.5C 47.5084,357.672 46.8417,357.338 46.5,356.5C 43.4952,353.466 40.1619,350.632 36.5,348C 29.0805,344.747 23.4138,339.58 19.5,332.5C 17.8794,331.305 16.2128,330.305 14.5,329.5C 12.347,327.206 10.6803,324.54 9.5,321.5C 9.16667,319.5 8.83333,317.5 8.5,315.5C 74.9756,315.996 141.309,315.496 207.5,314C 140.834,313.5 74.1675,313.333 7.5,313.5C 5.83109,310.117 4.16442,306.784 2.5,303.5C 1.54728,273.185 1.21395,242.851 1.5,212.5C 95.0057,213.333 188.506,213.667 282,213.5C 300.216,213.64 318.383,213.14 336.5,212C 225.167,211.5 113.834,211.333 2.5,211.5C 2.5,205.167 2.5,198.833 2.5,192.5C 29.3386,192.831 56.0052,192.498 82.5,191.5C 89.2656,196.812 96.0989,196.812 103,191.5C 106.077,187.369 107.244,182.702 106.5,177.5C 105.833,176.833 105.167,176.167 104.5,175.5C 104.5,174.833 104.5,174.167 104.5,173.5C 104.5,170.5 104.5,167.5 104.5,164.5 Z"/></g>
<g><path style="opacity:1" fill="#78b057" d="M 106.5,177.5 C 115.475,176.168 124.809,175.502 134.5,175.5C 143.833,175.833 153.167,176.167 162.5,176.5C 143.845,177.5 125.179,177.833 106.5,177.5 Z"/></g>
<g><path style="opacity:1" fill="#414e16" d="M 393.5,173.5 C 394.309,175.292 394.809,177.292 395,179.5C 395.708,180.381 396.542,181.047 397.5,181.5C 398.29,182.794 399.29,183.961 400.5,185C 403.696,185.805 406.696,185.638 409.5,184.5C 414.684,182.649 417.017,178.983 416.5,173.5C 416.833,173.5 417.167,173.5 417.5,173.5C 417.328,174.492 417.662,175.158 418.5,175.5C 418.5,175.833 418.5,176.167 418.5,176.5C 417.806,183.944 413.806,187.277 406.5,186.5C 398.792,186.79 394.458,183.123 393.5,175.5C 393.5,174.833 393.5,174.167 393.5,173.5 Z"/></g>
<g><path style="opacity:1" fill="#2c5217" d="M 392.5,175.5 C 392.833,175.5 393.167,175.5 393.5,175.5C 394.458,183.123 398.792,186.79 406.5,186.5C 413.806,187.277 417.806,183.944 418.5,176.5C 419.167,176.5 419.5,176.833 419.5,177.5C 420.743,185.65 417.743,191.483 410.5,195C 397.051,197.055 390.718,191.221 391.5,177.5C 391.833,176.833 392.167,176.167 392.5,175.5 Z"/></g>
<g><path style="opacity:1" fill="#305018" d="M 81.5,173.5 C 81.2155,175.415 81.5489,177.081 82.5,178.5C 82.5569,179.609 82.8902,180.609 83.5,181.5C 88.5941,186.267 94.2608,186.767 100.5,183C 101.252,182.329 101.586,181.496 101.5,180.5C 102.117,180.389 102.617,180.056 103,179.5C 103.495,177.527 103.662,175.527 103.5,173.5C 103.833,173.5 104.167,173.5 104.5,173.5C 104.5,174.167 104.5,174.833 104.5,175.5C 105.037,178.972 104.037,181.805 101.5,184C 103.767,185.081 103.934,186.581 102,188.5C 94.2974,195.495 87.2974,194.829 81,186.5C 80.5014,182.848 80.3347,179.182 80.5,175.5C 80.3284,174.508 80.6618,173.842 81.5,173.5 Z"/></g>
<g><path style="opacity:1" fill="#2b5414" d="M 80.5,175.5 C 80.3347,179.182 80.5014,182.848 81,186.5C 87.2974,194.829 94.2974,195.495 102,188.5C 103.934,186.581 103.767,185.081 101.5,184C 104.037,181.805 105.037,178.972 104.5,175.5C 105.167,176.167 105.833,176.833 106.5,177.5C 107.244,182.702 106.077,187.369 103,191.5C 96.0989,196.812 89.2656,196.812 82.5,191.5C 79.0731,187.573 77.7397,182.906 78.5,177.5C 79.1667,176.833 79.8333,176.167 80.5,175.5 Z"/></g>
<g><path style="opacity:1" fill="#ad7c4a" d="M 101.5,180.5 C 101.586,181.496 101.252,182.329 100.5,183C 94.2608,186.767 88.5941,186.267 83.5,181.5C 86.1257,182.135 88.6257,183.135 91,184.5C 94.3212,182.671 97.8212,181.338 101.5,180.5 Z"/></g>
<g><path style="opacity:1" fill="#82ba61" d="M 351.5,212.5 C 362.674,211.176 374.007,211.176 385.5,212.5C 374.209,212.781 362.875,212.781 351.5,212.5 Z"/></g>
<g><path style="opacity:1" fill="#83ba62" d="M 388.5,212.5 C 423.998,211.336 459.664,211.169 495.5,212C 489.833,213.148 484,213.648 478,213.5C 448.173,212.651 418.339,212.317 388.5,212.5 Z"/></g>
<g><path style="opacity:0.72" fill="#698e56" d="M 1.5,165.5 C 1.5,180.833 1.5,196.167 1.5,211.5C 1.5,211.833 1.5,212.167 1.5,212.5C 1.21395,242.851 1.54728,273.185 2.5,303.5C 1.71003,302.391 1.21003,301.058 1,299.5C 0.168536,254.665 0.335203,209.998 1.5,165.5 Z"/></g>
<g><path style="opacity:1" fill="#7ab158" d="M 1.5,212.5 C 1.5,212.167 1.5,211.833 1.5,211.5C 1.83333,211.5 2.16667,211.5 2.5,211.5C 113.834,211.333 225.167,211.5 336.5,212C 318.383,213.14 300.216,213.64 282,213.5C 188.506,213.667 95.0057,213.333 1.5,212.5 Z"/></g>
<g><path style="opacity:1" fill="#7ab35a" d="M 210.5,236.5 C 306.501,236.333 402.501,236.5 498.5,237C 491.665,237.476 484.832,237.976 478,238.5C 425.677,238.026 373.344,238.026 321,238.5C 283.827,238.5 246.994,237.833 210.5,236.5 Z"/></g>
<g><path style="opacity:1" fill="#7bb45b" d="M 2.5,236.5 C 67.8342,236.333 133.168,236.5 198.5,237C 144.254,238.317 89.9202,238.817 35.5,238.5C 24.1458,238.499 13.1458,237.832 2.5,236.5 Z"/></g>
<g><path style="opacity:0.69" fill="#7ba366" d="M 499.5,287.5 C 499.5,289.5 499.5,291.5 499.5,293.5C 498.634,297.96 497.301,302.293 495.5,306.5C 495.637,301.59 496.304,296.757 497.5,292C 497.569,290.014 498.235,288.514 499.5,287.5 Z"/></g>
<g><path style="opacity:0.953" fill="#7da268" d="M 2.5,303.5 C 4.16442,306.784 5.83109,310.117 7.5,313.5C 7.83333,314.167 8.16667,314.833 8.5,315.5C 8.83333,317.5 9.16667,319.5 9.5,321.5C 6.00319,316.019 3.66986,310.019 2.5,303.5 Z"/></g>
<g><path style="opacity:0.937" fill="#7ea66b" d="M 495.5,307.5 C 494.594,311.901 492.928,315.901 490.5,319.5C 490.5,318.167 490.5,316.833 490.5,315.5C 491.338,315.158 491.672,314.492 491.5,313.5C 492.545,311.23 493.879,309.23 495.5,307.5 Z"/></g>
<g><path style="opacity:1" fill="#7bb35a" d="M 7.5,313.5 C 74.1675,313.333 140.834,313.5 207.5,314C 141.309,315.496 74.9756,315.996 8.5,315.5C 8.16667,314.833 7.83333,314.167 7.5,313.5 Z"/></g>
<g><path style="opacity:1" fill="#7ab35a" d="M 491.5,313.5 C 491.672,314.492 491.338,315.158 490.5,315.5C 472.488,315.833 454.488,315.5 436.5,314.5C 454.821,313.5 473.155,313.167 491.5,313.5 Z"/></g>
<g><path style="opacity:1" fill="#7ab259" d="M 213.5,313.5 C 279.837,313.167 346.17,313.5 412.5,314.5C 379.333,314.833 346.167,315.167 313,315.5C 279.493,315.5 246.327,314.833 213.5,313.5 Z"/></g>
<g><path style="opacity:0.808" fill="#74995e" d="M 490.5,319.5 C 489,323.173 487,326.506 484.5,329.5C 485.004,325.14 487.004,321.807 490.5,319.5 Z"/></g>
<g><path style="opacity:1" fill="#629847" d="M 484.5,329.5 C 479.167,338.167 472.167,345.167 463.5,350.5C 462.77,348.955 461.437,348.122 459.5,348C 460.108,347.13 460.941,346.63 462,346.5C 465.88,347.342 468.713,345.842 470.5,342C 470.333,341.5 470.167,341 470,340.5C 467.147,341.875 464.481,343.542 462,345.5C 462.657,343.269 463.49,340.935 464.5,338.5C 465.675,339.855 466.675,339.688 467.5,338C 466.663,336.989 466.33,335.822 466.5,334.5C 467.5,334.5 468.5,334.5 469.5,334.5C 469.5,335.5 469.5,336.5 469.5,337.5C 471.143,337.48 472.476,338.147 473.5,339.5C 473.698,336.215 475.365,334.548 478.5,334.5C 478.148,331.927 478.648,329.594 480,327.5C 481.11,329.037 482.61,329.703 484.5,329.5 Z"/></g>
<g><path style="opacity:1" fill="#6c9754" d="M 14.5,329.5 C 16.2128,330.305 17.8794,331.305 19.5,332.5C 23.4138,339.58 29.0805,344.747 36.5,348C 40.1619,350.632 43.4952,353.466 46.5,356.5C 33.0687,350.783 22.402,341.783 14.5,329.5 Z"/></g>
<g><path style="opacity:1" fill="#719b5a" d="M 48.5,357.5 C 53.3294,359.239 58.3294,360.405 63.5,361C 64.3805,361.708 65.0472,362.542 65.5,363.5C 59.3335,362.668 53.6668,360.668 48.5,357.5 Z"/></g>
<g><path style="opacity:0.803" fill="#658e51" d="M 458.5,353.5 C 450.389,359.042 441.389,362.542 431.5,364C 309.999,364.833 188.666,364.666 67.5,363.5C 187.5,363.667 307.5,363.5 427.5,363C 430.167,362.667 432.833,362.333 435.5,362C 443.026,359.026 450.692,356.193 458.5,353.5 Z"/></g>
</svg>
