<?xml version="1.0" encoding="UTF-8"?>
<svg version="1.1" xmlns="http://www.w3.org/2000/svg" width="500" height="500">
<path d="M0 0 C2.02514153 1.554076 3.38774171 2.99857591 5 5 C2.69 8.63 0.38 12.26 -2 16 C-4.41666667 14.79166667 -6.83333333 13.58333333 -9.25 12.375 C-14.20046812 10.55982836 -18.44805671 9.97922268 -23.5 12 C-23.995 12.33 -24.49 12.66 -25 13 C-24.8784514 15.45086574 -24.8784514 15.45086574 -24 18 C-21.88842473 19.3087978 -21.88842473 19.3087978 -19.1875 20 C-17.70636719 20.48146484 -17.70636719 20.48146484 -16.1953125 20.97265625 C-14.61363281 21.48119141 -14.61363281 21.48119141 -13 22 C-10.84341212 22.78350855 -8.69702926 23.59575075 -6.5625 24.4375 C-5.11037109 24.99244141 -5.11037109 24.99244141 -3.62890625 25.55859375 C0.46911101 27.80550068 2.5344037 30.6032111 4 35 C4.75336812 41.66192662 4.49537544 46.8280251 0.48828125 52.34765625 C-4.18096349 57.53162088 -9.94600392 59.7278304 -16.76953125 60.3359375 C-28.06488198 60.58666824 -35.6038378 58.75030357 -44 51 C-43.44010697 47.00987629 -42.24330232 44.4744948 -39.9375 41.1875 C-39.38964844 40.39730469 -38.84179688 39.60710937 -38.27734375 38.79296875 C-37.85582031 38.20128906 -37.43429688 37.60960937 -37 37 C-36.34 37.7425 -35.68 38.485 -35 39.25 C-30.7626957 43.45139494 -26.17077783 45.74674259 -20.25 46.4375 C-16.86216865 45.98144578 -15.43488831 45.33749278 -13 43 C-13.11817527 41.04160661 -13.11817527 41.04160661 -14 39 C-16.1973926 37.77093094 -16.1973926 37.77093094 -18.9375 37 C-19.92878906 36.67 -20.92007813 36.34 -21.94140625 36 C-22.95074219 35.67 -23.96007812 35.34 -25 35 C-37.61155183 30.45913183 -37.61155183 30.45913183 -41.8125 24.375 C-43.6107606 19.26415409 -44.10644274 14.13492109 -42.2734375 8.94140625 C-39.04583932 2.84045847 -34.16944864 -0.30086622 -28 -3 C-18.30589456 -5.33436653 -8.89383964 -4.60889372 0 0 Z " fill="#FDFDFD" transform="translate(65,203)"/>
<path d="M0 0 C4.08920079 -0.10001808 8.17791311 -0.17200015 12.26806641 -0.21972656 C13.65491156 -0.23965342 15.04167482 -0.2668056 16.42822266 -0.30175781 C26.38363793 -0.54615068 35.06380313 -0.20101861 42.9375 6.5 C43.9584375 7.7375 43.9584375 7.7375 45 9 C45.51046875 9.60457031 46.0209375 10.20914063 46.546875 10.83203125 C49.91895494 15.86295696 50.52405155 22.7392896 49.5 28.625 C47.74043437 34.8675354 44.25810562 40.89303722 38.75 44.5 C34.53909131 46.5396589 29.65558465 47.44765237 25 47 C21.5382381 44.72296729 20.46847698 40.70615619 19 37 C18.9710663 40.79165074 18.95322399 44.58327327 18.9375 48.375 C18.92912109 49.45523438 18.92074219 50.53546875 18.91210938 51.6484375 C18.90888672 52.6796875 18.90566406 53.7109375 18.90234375 54.7734375 C18.89710693 55.72653809 18.89187012 56.67963867 18.88647461 57.66162109 C18.84357401 60.02324406 18.84357401 60.02324406 20 62 C13.4 62 6.8 62 0 62 C0.33 61.01 0.66 60.02 1 59 C1.09314759 57.19068473 1.12792241 55.37811706 1.12939453 53.56640625 C1.13254669 52.45515381 1.13569885 51.34390137 1.13894653 50.19897461 C1.1369223 48.99893799 1.13489807 47.79890137 1.1328125 46.5625 C1.13376923 45.33088135 1.13472595 44.0992627 1.13571167 42.83032227 C1.13656716 39.55666344 1.13253854 36.28305195 1.12695312 33.00939941 C1.12500196 31.00201913 1.12694616 28.99468257 1.13037109 26.98730469 C1.13653633 23.13734904 1.13580316 19.28745832 1.1328125 15.4375 C1.13584885 13.63744507 1.13584885 13.63744507 1.13894653 11.80102539 C1.13579437 10.68977295 1.13264221 9.57852051 1.12939453 8.43359375 C1.12859894 7.45447021 1.12780334 6.47534668 1.12698364 5.46655273 C1.10307327 2.8641635 1.10307327 2.8641635 0 0 Z M18 13 C17.86440325 15.56428515 17.76566812 18.12135216 17.6875 20.6875 C17.64560547 21.40873047 17.60371094 22.12996094 17.56054688 22.87304688 C17.46528785 27.04539221 17.66940387 28.56651426 20.296875 32.01171875 C22.91966632 34.33241609 22.91966632 34.33241609 26.5625 34.125 C30.73234666 32.76032291 31.97424883 31.88944224 34 28 C34.8232549 23.31508552 34.66928685 20.07085896 32.125 16 C28.91836623 12.98199175 27.17733368 12.88234188 22.875 12.9375 C21.96492188 12.94652344 21.05484375 12.95554688 20.1171875 12.96484375 C19.06917969 12.98224609 19.06917969 12.98224609 18 13 Z " fill="#FEFEFE" transform="translate(324,200)"/>
<path d="M0 0 C5.24792202 4.60531933 8.63764096 10.06941093 9.28125 17.05078125 C9.49723619 24.85328231 9.42400675 31.36557943 3.90234375 37.2265625 C-2.69483933 43.29811636 -6.85263714 44.30990414 -15.76953125 44.2109375 C-22.03946871 43.80153409 -26.4568043 41.41465415 -30.7109375 36.78515625 C-35.29548877 30.43624738 -35.93990301 22.58330841 -35 15 C-33.27019282 7.85424889 -30.26209327 2.93617291 -24 -1 C-16.6990115 -4.56937215 -6.98484881 -4.25099401 0 0 Z M-20 15 C-21.45313111 19.23534555 -21.3473629 22.7920988 -19.6875 26.9375 C-18.34139366 30.06578073 -18.34139366 30.06578073 -16 31 C-12.31987667 31.4000134 -10.6510711 31.51029897 -7.6875 29.1875 C-4.6704308 25.27648437 -4.66841343 21.80800527 -5 17 C-6.40460697 14.12694028 -7.74510999 12.25489001 -10 10 C-15.00440024 9.05322158 -17.06691753 11.08922337 -20 15 Z " fill="#FDFDFD" transform="translate(425,219)"/>
<path d="M0 0 C0.66 0.33 1.32 0.66 2 1 C2 4.3 2 7.6 2 11 C2.763125 9.55625 3.52625 8.1125 4.3125 6.625 C6.04599646 3.3454121 6.83246298 2.11169135 10 0 C15.34704794 -0.43121354 18.66461829 -0.46830537 23 3 C26.91887354 7.47871262 27.1454777 11.32821764 27.28125 17.15234375 C27.30886414 18.1971566 27.30886414 18.1971566 27.33703613 19.26307678 C27.39570317 21.48779989 27.44854331 23.71259915 27.5 25.9375 C27.56783128 28.86343704 27.64153049 31.78914114 27.71875 34.71484375 C27.74904297 36.01542725 27.77933594 37.31601074 27.81054688 38.65600586 C27.9034802 42.14452521 27.9034802 42.14452521 29 46 C23.06 46 17.12 46 11 46 C11.33 44.68 11.66 43.36 12 42 C12.22728461 37.46118357 12.18514807 32.9189306 12.1875 28.375 C12.19974609 27.12203125 12.21199219 25.8690625 12.22460938 24.578125 C12.22654297 23.38445312 12.22847656 22.19078125 12.23046875 20.9609375 C12.23663208 19.31810791 12.23663208 19.31810791 12.24291992 17.64208984 C12.26952659 14.843262 12.26952659 14.843262 10 13 C6.96003468 13.0065611 6.96003468 13.0065611 4 14 C2.12886221 16.83557745 1.74425782 19.1284506 1.734375 22.484375 C1.73179687 23.33773437 1.72921875 24.19109375 1.7265625 25.0703125 C1.73429687 25.95460937 1.74203125 26.83890625 1.75 27.75 C1.74226563 28.61882812 1.73453125 29.48765625 1.7265625 30.3828125 C1.73042969 31.67058594 1.73042969 31.67058594 1.734375 32.984375 C1.73663086 33.75491211 1.73888672 34.52544922 1.74121094 35.31933594 C2.09088806 38.94146309 3.11742092 42.46968367 4 46 C-2.27 46 -8.54 46 -15 46 C-14.67 45.34 -14.34 44.68 -14 44 C-13.76480423 39.45038721 -13.77160826 34.89701347 -13.75976562 30.34204102 C-13.7500521 28.07466051 -13.71902607 25.80818361 -13.6875 23.54101562 C-13.68097058 22.10156789 -13.67571986 20.66211366 -13.671875 19.22265625 C-13.6625293 17.91047119 -13.65318359 16.59828613 -13.64355469 15.24633789 C-13.7113454 12.05170853 -13.7113454 12.05170853 -15.39550781 10.17358398 C-15.92499023 9.78630127 -16.45447266 9.39901855 -17 9 C-17.66 8.34 -18.32 7.68 -19 7 C-18.13117188 6.74605469 -17.26234375 6.49210938 -16.3671875 6.23046875 C-15.21476563 5.88628906 -14.06234375 5.54210937 -12.875 5.1875 C-11.73804688 4.85105469 -10.60109375 4.51460937 -9.4296875 4.16796875 C-5.95075697 3.07647731 -5.95075697 3.07647731 -2.6953125 1.30078125 C-1.80585938 0.87152344 -0.91640625 0.44226563 0 0 Z " fill="#FDFDFD" transform="translate(160,216)"/>
<path d="M0 0 C0.01981934 0.8878418 0.03963867 1.77568359 0.06005859 2.69042969 C0.13828232 5.99311334 0.22497885 9.29535064 0.31738281 12.59765625 C0.35560024 14.02530398 0.39046572 15.45304563 0.421875 16.88085938 C0.46768401 18.93653868 0.5256498 20.99157554 0.5859375 23.046875 C0.63306885 24.90070801 0.63306885 24.90070801 0.68115234 26.79199219 C0.97682001 29.76678017 1.44027331 31.49349184 3 34 C5.31 34 7.62 34 10 34 C11.27595098 30.17214707 11.18415169 26.5503343 11.1875 22.5625 C11.20586914 21.4168457 11.20586914 21.4168457 11.22460938 20.24804688 C11.23778018 15.20362987 10.91393673 12.06116263 7.375 8.25 C6.92125 7.8375 6.4675 7.425 6 7 C6.79664062 6.74605469 7.59328125 6.49210938 8.4140625 6.23046875 C13.84391381 4.46675792 18.95236097 2.65665212 24 0 C24.66 0 25.32 0 26 0 C26.01401855 1.64983887 26.01401855 1.64983887 26.02832031 3.33300781 C26.06822937 7.41854166 26.13399004 11.50332319 26.20751953 15.58837891 C26.23572397 17.35553311 26.25694118 19.12281334 26.27099609 20.89013672 C26.29243358 23.43262222 26.33908503 25.97359338 26.390625 28.515625 C26.39185364 29.30430969 26.39308228 30.09299438 26.39434814 30.90557861 C26.49296021 34.60861763 26.67791933 36.60013847 29.03808594 39.53027344 C30.0092334 40.25778809 30.0092334 40.25778809 31 41 C29.27843904 42.01303762 27.54738194 43.00994848 25.8125 44 C24.84957031 44.556875 23.88664062 45.11375 22.89453125 45.6875 C19.92412296 47.03440578 18.21017247 47.46338142 15 47 C12.45799192 43.8224899 11.71422244 40.93483657 11 37 C10.66226563 37.63808594 10.32453125 38.27617187 9.9765625 38.93359375 C9.53054687 39.75988281 9.08453125 40.58617187 8.625 41.4375 C8.18414062 42.26121094 7.74328125 43.08492188 7.2890625 43.93359375 C6 46 6 46 4 47 C-0.82518707 47.60748758 -5.46683355 47.98234101 -9.5 44.9375 C-14.84756697 38.65410881 -14.35991061 31.07860394 -14.5625 23.1875 C-14.62227206 21.11836924 -14.68587745 19.04934451 -14.75390625 16.98046875 C-14.78979858 15.61764771 -14.78979858 15.61764771 -14.82641602 14.22729492 C-14.86244065 11.961481 -14.86244065 11.961481 -16 10 C-18.01669827 8.86649466 -18.01669827 8.86649466 -20 8 C-16.56226987 6.17952715 -13.01122863 4.812372 -9.375 3.4375 C-0.29673591 0 -0.29673591 0 0 0 Z " fill="#FDFDFD" transform="translate(101,216)"/>
<path d="M0 0 C-0.44812018 2.1479894 -0.90878348 4.29336561 -1.375 6.4375 C-1.75785156 8.22994141 -1.75785156 8.22994141 -2.1484375 10.05859375 C-2.42945313 11.02925781 -2.71046875 11.99992188 -3 13 C-3.99 13.495 -3.99 13.495 -5 14 C-6.84765625 13.2578125 -6.84765625 13.2578125 -9.0625 12.125 C-13.78429965 9.90207484 -17.81216458 9.32938638 -23 9 C-23 9.66 -23 10.32 -23 11 C-22.29875 11.17015625 -21.5975 11.3403125 -20.875 11.515625 C-6.57400257 15.16859717 -6.57400257 15.16859717 -1.5 20.75 C0.3392696 24.73508413 0.84473097 27.69014811 0 32 C-2.42259567 36.84519135 -5.33696883 39.32123742 -10 42 C-19.25476573 45.08492191 -28.48844327 43.12681539 -37 39 C-36.01 34.71 -35.02 30.42 -34 26 C-29 27 -29 27 -26.8125 28 C-22.64026289 29.48346208 -18.39569398 29.67565753 -14 30 C-16.5318039 26.9200736 -19.03397145 26.19914774 -22.8125 25.125 C-28.94352818 23.17522925 -32.94499763 21.30587337 -36.4375 15.6875 C-37.59732348 10.14612114 -36.86065505 6.38226417 -33.9375 1.6875 C-24.14364728 -7.27283334 -11.28443198 -4.97581252 0 0 Z " fill="#FDFDFD" transform="translate(275,220)"/>
<path d="M0 0 C0.66 0 1.32 0 2 0 C2 4.29 2 8.58 2 13 C5.3 13 8.6 13 12 13 C12 17.29 12 21.58 12 26 C8.7 26 5.4 26 2 26 C2.33 32.6 2.66 39.2 3 46 C7.455 45.505 7.455 45.505 12 45 C12.99 50.445 12.99 50.445 14 56 C8.46395149 59.82952346 3.54266107 59.78015471 -3 59 C-7.60080461 56.98210324 -9.51547918 54.81872968 -11.40454102 50.19116211 C-12.61652323 45.73132594 -12.30382916 41.14706196 -12.1875 36.5625 C-12.17396484 35.54478516 -12.16042969 34.52707031 -12.14648438 33.47851562 C-12.1113661 30.98511786 -12.06218559 28.49284488 -12 26 C-13.32 26 -14.64 26 -16 26 C-16.6054978 21.52604405 -16.85891378 17.45073504 -16 13 C-13.11225398 9.83723055 -9.70747389 8.07482484 -6 6 C-4.16579942 4.42900309 -2.63004351 2.78778965 -1 1 C-0.67 0.67 -0.34 0.34 0 0 Z " fill="#FDFDFD" transform="translate(465,204)"/>
<path d="M0 0 C3.11768824 2.7074661 3.91535506 4.33493261 4.4375 8.4375 C3.81182328 13.53229618 2.57060281 16.71130026 -1.4375 20 C-4 21 -4 21 -6.3125 20.1875 C-6.869375 19.795625 -7.42625 19.40375 -8 19 C-7.195625 18.731875 -6.39125 18.46375 -5.5625 18.1875 C-4.716875 17.795625 -3.87125 17.40375 -3 17 C-2.67 16.01 -2.34 15.02 -2 14 C-2.763125 13.9175 -3.52625 13.835 -4.3125 13.75 C-7 13 -7 13 -8.875 11.375 C-10.50823915 7.92705069 -9.94084486 5.62897301 -9 2 C-5.50434664 -0.33043558 -4.1134271 -0.58763244 0 0 Z " fill="#FCFCFC" transform="translate(217,198)"/>
</svg>
